<svg width="50" height="50" viewBox="0 0 50 50" fill="none" xmlns="http://www.w3.org/2000/svg">
<path d="M27.0833 22.9167H41.6667C42.2192 22.9167 42.7491 23.1362 43.1398 23.5269C43.5305 23.9176 43.75 24.4475 43.75 25C43.75 25.5525 43.5305 26.0824 43.1398 26.4731C42.7491 26.8638 42.2192 27.0833 41.6667 27.0833H27.0833V41.6667C27.0833 42.2192 26.8638 42.7491 26.4731 43.1398C26.0824 43.5305 25.5525 43.75 25 43.75C24.4475 43.75 23.9176 43.5305 23.5269 43.1398C23.1362 42.7491 22.9167 42.2192 22.9167 41.6667V27.0833H8.33333C7.7808 27.0833 7.25089 26.8638 6.86019 26.4731C6.46949 26.0824 6.25 25.5525 6.25 25C6.25 24.4475 6.46949 23.9176 6.86019 23.5269C7.25089 23.1362 7.7808 22.9167 8.33333 22.9167H22.9167V8.33333C22.9167 7.7808 23.1362 7.25089 23.5269 6.86019C23.9176 6.46949 24.4475 6.25 25 6.25C25.5525 6.25 26.0824 6.46949 26.4731 6.86019C26.8638 7.25089 27.0833 7.7808 27.0833 8.33333V22.9167Z" fill="white"/>
</svg>
