<svg width="50" height="50" viewBox="0 0 50 50" fill="none" xmlns="http://www.w3.org/2000/svg">
<path d="M41.6667 10.4167H33.3333V8.33333C33.3333 7.7808 33.1138 7.25089 32.7231 6.86019C32.3324 6.46949 31.8025 6.25 31.25 6.25C30.6975 6.25 30.1676 6.46949 29.7769 6.86019C29.3862 7.25089 29.1667 7.7808 29.1667 8.33333V10.4167H20.8333V8.33333C20.8333 7.7808 20.6138 7.25089 20.2231 6.86019C19.8324 6.46949 19.3025 6.25 18.75 6.25C18.1975 6.25 17.6676 6.46949 17.2769 6.86019C16.8862 7.25089 16.6667 7.7808 16.6667 8.33333V10.4167H8.33333C7.7808 10.4167 7.25089 10.6362 6.86019 11.0269C6.46949 11.4176 6.25 11.9475 6.25 12.5V39.5833C6.25 40.1359 6.46949 40.6658 6.86019 41.0565C7.25089 41.4472 7.7808 41.6667 8.33333 41.6667H41.6667C42.2192 41.6667 42.7491 41.4472 43.1398 41.0565C43.5305 40.6658 43.75 40.1359 43.75 39.5833V12.5C43.75 11.9475 43.5305 11.4176 43.1398 11.0269C42.7491 10.6362 42.2192 10.4167 41.6667 10.4167ZM16.6667 14.5833V15.625C16.6667 16.1775 16.8862 16.7074 17.2769 17.0981C17.6676 17.4888 18.1975 17.7083 18.75 17.7083C19.3025 17.7083 19.8324 17.4888 20.2231 17.0981C20.6138 16.7074 20.8333 16.1775 20.8333 15.625V14.5833H29.1667V15.625C29.1667 16.1775 29.3862 16.7074 29.7769 17.0981C30.1676 17.4888 30.6975 17.7083 31.25 17.7083C31.8025 17.7083 32.3324 17.4888 32.7231 17.0981C33.1138 16.7074 33.3333 16.1775 33.3333 15.625V14.5833H39.5833V20.8333H10.4167V14.5833H16.6667ZM10.4167 37.5V25H39.5833V37.5H10.4167Z" fill="white"/>
</svg>
