<svg width="50" height="50" viewBox="0 0 50 50" fill="none" xmlns="http://www.w3.org/2000/svg">
<path d="M19.1083 38.8688C18.5558 38.8686 18.026 38.6491 17.6354 38.2583L5.84995 26.4729C5.47046 26.08 5.26047 25.5538 5.26522 25.0075C5.26996 24.4613 5.48906 23.9387 5.87533 23.5525C6.2616 23.1662 6.78412 22.9471 7.33037 22.9424C7.87661 22.9376 8.40287 23.1476 8.79579 23.5271L19.1083 33.8396L41.2041 11.7417C41.597 11.3622 42.1233 11.1522 42.6695 11.1569C43.2158 11.1617 43.7383 11.3808 44.1246 11.7671C44.5108 12.1533 44.7299 12.6758 44.7347 13.2221C44.7394 13.7683 44.5294 14.2946 44.1499 14.6875L20.5812 38.2583C20.1906 38.6491 19.6608 38.8686 19.1083 38.8688Z" fill="white"/>
</svg>
