<svg width="50" height="50" viewBox="0 0 50 50" fill="none" xmlns="http://www.w3.org/2000/svg">
<path d="M36.7854 32.6188C36.2329 32.6186 35.7031 32.3991 35.3125 32.0083L25 21.6958L14.6875 32.0083C14.2946 32.3878 13.7683 32.5978 13.2221 32.5931C12.6758 32.5883 12.1533 32.3692 11.7671 31.983C11.3808 31.5967 11.1617 31.0742 11.1569 30.5279C11.1522 29.9817 11.3622 29.4554 11.7417 29.0625L23.5271 17.2771C23.9178 16.8865 24.4476 16.6671 25 16.6671C25.5524 16.6671 26.0822 16.8865 26.4729 17.2771L38.2583 29.0625C38.5496 29.3539 38.748 29.725 38.8283 30.1291C38.9087 30.5332 38.8674 30.952 38.7098 31.3326C38.5521 31.7132 38.2851 32.0386 37.9426 32.2675C37.6001 32.4964 37.1974 32.6187 36.7854 32.6188Z" fill="white"/>
</svg>
