<svg width="50" height="50" viewBox="0 0 50 50" fill="none" xmlns="http://www.w3.org/2000/svg">
<path d="M19.4646 38.8688C19.0526 38.8687 18.6499 38.7464 18.3074 38.5175C17.9649 38.2886 17.6979 37.9632 17.5403 37.5826C17.3826 37.202 17.3414 36.7832 17.4217 36.3791C17.5021 35.975 17.7004 35.6039 17.9917 35.3125L28.3042 25L17.9917 14.6875C17.6122 14.2946 17.4022 13.7683 17.4069 13.2221C17.4117 12.6758 17.6308 12.1533 18.0171 11.7671C18.4033 11.3808 18.9259 11.1617 19.4721 11.1569C20.0183 11.1522 20.5446 11.3622 20.9375 11.7417L32.7229 23.5271C33.1135 23.9178 33.3329 24.4476 33.3329 25C33.3329 25.5524 33.1135 26.0822 32.7229 26.4729L20.9375 38.2583C20.5469 38.6491 20.0171 38.8686 19.4646 38.8688Z" fill="white"/>
</svg>
