<svg width="50" height="50" viewBox="0 0 50 50" fill="none" xmlns="http://www.w3.org/2000/svg">
<path d="M25 33.3333C24.4475 33.3332 23.9177 33.1137 23.5271 32.7229L11.7417 20.9375C11.3622 20.5446 11.1522 20.0183 11.1569 19.4721C11.1617 18.9258 11.3808 18.4033 11.7671 18.0171C12.1533 17.6308 12.6758 17.4117 13.2221 17.4069C13.7683 17.4022 14.2946 17.6122 14.6875 17.9917L25 28.3042L35.3125 17.9917C35.7054 17.6122 36.2317 17.4022 36.7779 17.4069C37.3242 17.4117 37.8467 17.6308 38.233 18.0171C38.6192 18.4033 38.8383 18.9258 38.8431 19.4721C38.8478 20.0183 38.6378 20.5446 38.2583 20.9375L26.4729 32.7229C26.0823 33.1137 25.5525 33.3332 25 33.3333Z" fill="#1A736B"/>
</svg>
