<svg width="50" height="50" viewBox="0 0 50 50" fill="none" xmlns="http://www.w3.org/2000/svg">
<path d="M30.5354 38.8688C29.9829 38.8686 29.4531 38.6491 29.0625 38.2583L17.2771 26.4729C16.8865 26.0822 16.6671 25.5524 16.6671 25C16.6671 24.4476 16.8865 23.9178 17.2771 23.5271L29.0625 11.7417C29.4554 11.3622 29.9817 11.1522 30.5279 11.1569C31.0742 11.1617 31.5967 11.3808 31.983 11.7671C32.3692 12.1533 32.5883 12.6758 32.5931 13.2221C32.5978 13.7683 32.3878 14.2946 32.0083 14.6875L21.6958 25L32.0083 35.3125C32.2996 35.6039 32.498 35.975 32.5783 36.3791C32.6587 36.7832 32.6174 37.202 32.4597 37.5826C32.3021 37.9632 32.0351 38.2886 31.6926 38.5175C31.3501 38.7464 30.9474 38.8687 30.5354 38.8688Z" fill="white"/>
</svg>
