<svg width="50" height="50" viewBox="0 0 50 50" fill="none" xmlns="http://www.w3.org/2000/svg">
<path d="M27.9458 25L38.2583 14.6875C38.6378 14.2946 38.8478 13.7683 38.8431 13.2221C38.8383 12.6758 38.6192 12.1533 38.233 11.7671C37.8467 11.3808 37.3242 11.1617 36.7779 11.1569C36.2317 11.1522 35.7054 11.3622 35.3125 11.7417L25 22.0542L14.6875 11.7417C14.2946 11.3622 13.7683 11.1522 13.2221 11.1569C12.6758 11.1617 12.1533 11.3808 11.7671 11.7671C11.3808 12.1533 11.1617 12.6758 11.1569 13.2221C11.1522 13.7683 11.3622 14.2946 11.7417 14.6875L22.0542 25L11.7417 35.3125C11.3622 35.7054 11.1522 36.2317 11.1569 36.7779C11.1617 37.3242 11.3808 37.8467 11.7671 38.233C12.1533 38.6192 12.6758 38.8383 13.2221 38.8431C13.7683 38.8478 14.2946 38.6378 14.6875 38.2583L25 27.9458L35.3125 38.2583C35.7054 38.6378 36.2317 38.8478 36.7779 38.8431C37.3242 38.8383 37.8467 38.6192 38.233 38.233C38.6192 37.8467 38.8383 37.3242 38.8431 36.7779C38.8478 36.2317 38.6378 35.7054 38.2583 35.3125L27.9458 25Z" fill="white"/>
</svg>
