<svg width="50" height="50" viewBox="0 0 50 50" fill="none" xmlns="http://www.w3.org/2000/svg">
<path d="M25 39.5833C26.7259 39.5833 28.125 38.1842 28.125 36.4583C28.125 34.7324 26.7259 33.3333 25 33.3333C23.2741 33.3333 21.875 34.7324 21.875 36.4583C21.875 38.1842 23.2741 39.5833 25 39.5833Z" fill="white"/>
<path d="M25 28.125C26.7259 28.125 28.125 26.7259 28.125 25C28.125 23.2741 26.7259 21.875 25 21.875C23.2741 21.875 21.875 23.2741 21.875 25C21.875 26.7259 23.2741 28.125 25 28.125Z" fill="white"/>
<path d="M25 16.6667C26.7259 16.6667 28.125 15.2676 28.125 13.5417C28.125 11.8158 26.7259 10.4167 25 10.4167C23.2741 10.4167 21.875 11.8158 21.875 13.5417C21.875 15.2676 23.2741 16.6667 25 16.6667Z" fill="white"/>
</svg>
