<svg width="50" height="50" viewBox="0 0 50 50" fill="none" xmlns="http://www.w3.org/2000/svg">
<path d="M39.5833 10.4167H10.4167C9.3116 10.4167 8.25179 10.8557 7.47039 11.6371C6.68899 12.4185 6.25 13.4783 6.25 14.5834V35.4167C6.25 36.5218 6.68899 37.5816 7.47039 38.363C8.25179 39.1444 9.3116 39.5834 10.4167 39.5834H39.5833C40.6884 39.5834 41.7482 39.1444 42.5296 38.363C43.311 37.5816 43.75 36.5218 43.75 35.4167V14.5834C43.75 13.4783 43.311 12.4185 42.5296 11.6371C41.7482 10.8557 40.6884 10.4167 39.5833 10.4167ZM39.5833 14.5834V16.7313L26.0646 24.7729C25.7425 24.9644 25.3747 25.0655 25 25.0655C24.6253 25.0655 24.2575 24.9644 23.9354 24.7729L10.4167 16.7313V14.5834H39.5833ZM10.4167 35.4167V21.5792L21.8042 28.3521C22.7707 28.9269 23.8744 29.2303 24.999 29.2303C26.1235 29.2303 27.2272 28.9269 28.1937 28.3521L39.5833 21.5792V35.4167H10.4167Z" fill="#30CFC0"/>
</svg>
