<svg width="50" height="50" viewBox="0 0 50 50" fill="none" xmlns="http://www.w3.org/2000/svg">
<path d="M25 43.75C23.7724 43.75 22.5478 43.6293 21.3438 43.3896C20.9299 43.3074 20.5507 43.1014 20.2564 42.799C19.9622 42.4965 19.7667 42.1118 19.6959 41.6958L19.1271 38.35C18.1549 37.9235 17.2327 37.3911 16.3771 36.7625L13.1959 37.9417C12.8002 38.0887 12.3692 38.112 11.9599 38.0086C11.5507 37.9051 11.1825 37.6798 10.9042 37.3625C9.27958 35.5121 8.03635 33.3591 7.24587 31.0271C7.11023 30.6271 7.09936 30.1954 7.2147 29.7891C7.33004 29.3828 7.56614 29.0211 7.8917 28.7521L10.5042 26.5854C10.3883 25.5303 10.3883 24.4656 10.5042 23.4104L7.88962 21.25C7.56406 20.981 7.32795 20.6193 7.21261 20.213C7.09728 19.8067 7.10815 19.375 7.24379 18.975C8.03402 16.6422 9.27726 14.4885 10.9021 12.6375C11.1805 12.3202 11.5486 12.0949 11.9579 11.9915C12.3671 11.888 12.7981 11.9114 13.1938 12.0583L16.375 13.2375C17.2306 12.6089 18.1528 12.0765 19.125 11.65L19.6959 8.30417C19.7667 7.88817 19.9622 7.50349 20.2564 7.20104C20.5507 6.89859 20.9299 6.69263 21.3438 6.61042C23.7574 6.12815 26.2426 6.12815 28.6563 6.61042C29.0702 6.69263 29.4494 6.89859 29.7436 7.20104C30.0379 7.50349 30.2334 7.88817 30.3042 8.30417L30.873 11.65C31.8452 12.0765 32.7674 12.6089 33.623 13.2375L36.8042 12.0583C37.1999 11.9114 37.6309 11.888 38.0401 11.9915C38.4494 12.0949 38.8175 12.3202 39.0959 12.6375C40.7205 14.4879 41.9637 16.6409 42.7542 18.9729C42.8898 19.3729 42.9007 19.8046 42.7854 20.2109C42.67 20.6172 42.4339 20.9789 42.1084 21.2479L39.4959 23.4146C39.6118 24.4697 39.6118 25.5344 39.4959 26.5896L42.1084 28.7563C42.4339 29.0253 42.67 29.3869 42.7854 29.7932C42.9007 30.1995 42.8898 30.6313 42.7542 31.0313C41.9637 33.3633 40.7205 35.5163 39.0959 37.3667C38.8175 37.684 38.4494 37.9093 38.0401 38.0127C37.6309 38.1161 37.1999 38.0928 36.8042 37.9458L33.623 36.7667C32.7674 37.3953 31.8452 37.9277 30.873 38.3542L30.3042 41.7C30.2334 42.116 30.0379 42.5007 29.7436 42.8031C29.4494 43.1056 29.0702 43.3115 28.6563 43.3938C27.4522 43.6321 26.2275 43.7514 25 43.75ZM23.5417 39.5104C24.5066 39.6081 25.4789 39.6081 26.4438 39.5104L26.9584 36.4875C27.0214 36.1175 27.1831 35.7713 27.4266 35.4856C27.6701 35.2 27.9863 34.9854 28.3417 34.8646C29.6423 34.4281 30.8433 33.7376 31.875 32.8333C32.1575 32.5853 32.5019 32.4183 32.8716 32.3501C33.2413 32.2818 33.6226 32.3149 33.975 32.4458L36.8521 33.5125C37.4205 32.7255 37.909 31.8839 38.3105 31L35.95 29.0438C35.6611 28.8044 35.4422 28.4914 35.3164 28.1379C35.1906 27.7844 35.1627 27.4035 35.2355 27.0354C35.5019 25.6923 35.5019 24.3098 35.2355 22.9667C35.1627 22.5986 35.1906 22.2177 35.3164 21.8642C35.4422 21.5107 35.6611 21.1977 35.95 20.9583L38.2917 19C37.8903 18.1161 37.4018 17.2745 36.8334 16.4875L33.9584 17.5542C33.6082 17.6818 33.2302 17.7132 32.8638 17.6451C32.4973 17.5769 32.1559 17.4117 31.875 17.1667C30.8484 16.2635 29.6533 15.5725 28.3584 15.1333C28.003 15.0125 27.6868 14.798 27.4433 14.5123C27.1998 14.2266 27.038 13.8805 26.975 13.5104L26.4584 10.4896C25.4935 10.3919 24.5212 10.3919 23.5563 10.4896L23.0355 13.5104C22.9725 13.8805 22.8107 14.2266 22.5672 14.5123C22.3237 14.798 22.0075 15.0125 21.6521 15.1333C20.3535 15.5712 19.1547 16.2623 18.125 17.1667C17.8442 17.4117 17.5028 17.5769 17.1363 17.6451C16.7699 17.7132 16.3919 17.6818 16.0417 17.5542L13.1563 16.4875C12.5879 17.2745 12.0994 18.1161 11.698 19L14.0584 20.9563C14.3473 21.1956 14.5662 21.5086 14.692 21.8621C14.8178 22.2156 14.8457 22.5965 14.773 22.9646C14.5065 24.3077 14.5065 25.6902 14.773 27.0333C14.8457 27.4014 14.8178 27.7823 14.692 28.1358C14.5662 28.4893 14.3473 28.8023 14.0584 29.0417L11.7084 31C12.1098 31.8839 12.5983 32.7255 13.1667 33.5125L16.0417 32.4458C16.3919 32.3182 16.7699 32.2868 17.1363 32.3549C17.5028 32.4231 17.8442 32.5883 18.125 32.8333C19.1516 33.7365 20.3468 34.4275 21.6417 34.8667C21.9971 34.9875 22.3133 35.202 22.5568 35.4877C22.8003 35.7734 22.962 36.1195 23.025 36.4896L23.5417 39.5104ZM25 31.75C23.2098 31.75 21.4929 31.0388 20.2271 29.773C18.9612 28.5071 18.25 26.7902 18.25 25C18.25 23.2098 18.9612 21.4929 20.2271 20.227C21.4929 18.9612 23.2098 18.25 25 18.25C26.7902 18.25 28.5071 18.9612 29.773 20.227C31.0389 21.4929 31.75 23.2098 31.75 25C31.75 26.7902 31.0389 28.5071 29.773 29.773C28.5071 31.0388 26.7902 31.75 25 31.75ZM25 22.4167C24.4891 22.4167 23.9896 22.5682 23.5648 22.852C23.14 23.1359 22.8089 23.5394 22.6133 24.0114C22.4178 24.4834 22.3667 25.0029 22.4663 25.504C22.566 26.0051 22.8121 26.4654 23.1733 26.8267C23.5346 27.188 23.9949 27.434 24.4961 27.5337C24.9972 27.6334 25.5166 27.5822 25.9886 27.3867C26.4607 27.1912 26.8641 26.8601 27.148 26.4352C27.4319 26.0104 27.5834 25.5109 27.5834 25C27.5812 24.3155 27.3083 23.6597 26.8243 23.1757C26.3403 22.6917 25.6845 22.4189 25 22.4167Z" fill="white"/>
</svg>
