<svg width="50" height="50" viewBox="0 0 50 50" fill="none" xmlns="http://www.w3.org/2000/svg">
<path fill-rule="evenodd" clip-rule="evenodd" d="M10.7576 25C10.7576 23.4122 11.0213 21.89 11.4919 20.4622L3.25357 14.1711C1.64796 17.4311 0.743347 21.1044 0.743347 25C0.743347 28.8922 1.64685 32.5633 3.25024 35.8211L11.4841 29.5177C11.0179 28.0966 10.7576 26.58 10.7576 25Z" fill="#FBBC05"/>
<path fill-rule="evenodd" clip-rule="evenodd" d="M25.2225 10.5555C28.6719 10.5555 31.7874 11.7778 34.2353 13.7778L41.3565 6.66665C37.017 2.88888 31.4536 0.555542 25.2225 0.555542C15.5488 0.555542 7.2348 6.08776 3.2536 14.1711L11.492 20.4622C13.3902 14.7 18.8012 10.5555 25.2225 10.5555Z" fill="#EB4335"/>
<path fill-rule="evenodd" clip-rule="evenodd" d="M25.2225 39.4444C18.8012 39.4444 13.3902 35.3 11.492 29.5378L3.2536 35.8278C7.2348 43.9122 15.5488 49.4444 25.2225 49.4444C31.1932 49.4444 36.8935 47.3244 41.1718 43.3522L33.3518 37.3067C31.1454 38.6967 28.367 39.4444 25.2225 39.4444Z" fill="#34A853"/>
<path fill-rule="evenodd" clip-rule="evenodd" d="M48.589 25C48.589 23.5555 48.3665 22 48.0327 20.5555H25.2225V30H38.3523C37.6958 33.22 35.9088 35.6955 33.3518 37.3067L41.1718 43.3522C45.666 39.1811 48.589 32.9678 48.589 25Z" fill="#4285F4"/>
</svg>
