<svg width="50" height="50" viewBox="0 0 50 50" fill="none" xmlns="http://www.w3.org/2000/svg">
<path d="M25 41.6667C24.6847 41.667 24.3734 41.5958 24.0896 41.4584C23.3625 41.1042 6.25 32.6479 6.25 18.75C6.25003 16.6899 6.8609 14.6761 8.00537 12.9632C9.14983 11.2503 10.7765 9.91518 12.6797 9.1267C14.5829 8.33821 16.6772 8.13175 18.6977 8.53343C20.7183 8.93511 22.5743 9.92689 24.0312 11.3834L25 12.3521L25.9688 11.3834C27.4257 9.92689 29.2817 8.93511 31.3023 8.53343C33.3228 8.13175 35.4171 8.33821 37.3203 9.1267C39.2235 9.91518 40.8502 11.2503 41.9946 12.9632C43.1391 14.6761 43.75 16.6899 43.75 18.75C43.75 32.5959 26.6417 41.1 25.9125 41.4584C25.6281 41.5961 25.316 41.6674 25 41.6667ZM16.6667 12.5C15.0091 12.5 13.4194 13.1585 12.2472 14.3306C11.0751 15.5027 10.4167 17.0924 10.4167 18.75C10.4167 28.4146 21.6667 35.3771 25 37.225C28.3333 35.3709 39.5833 28.3771 39.5833 18.75C39.5831 17.5141 39.2164 16.306 38.5296 15.2784C37.8428 14.2508 36.8668 13.45 35.7249 12.977C34.5831 12.5041 33.3266 12.3803 32.1144 12.6214C30.9022 12.8624 29.7887 13.4575 28.9146 14.3313L26.4729 16.7709C26.0822 17.1614 25.5524 17.3808 25 17.3808C24.4476 17.3808 23.9178 17.1614 23.5271 16.7709L21.0854 14.3313C20.5066 13.749 19.818 13.2874 19.0595 12.973C18.301 12.6587 17.4877 12.4979 16.6667 12.5Z" fill="white"/>
</svg>
