<svg width="50" height="50" viewBox="0 0 50 50" fill="none" xmlns="http://www.w3.org/2000/svg">
<path d="M25 41.6667C24.6847 41.667 24.3734 41.5958 24.0896 41.4584C23.3625 41.1042 6.25 32.6479 6.25 18.75C6.25003 16.6899 6.8609 14.6761 8.00537 12.9632C9.14983 11.2503 10.7765 9.91518 12.6797 9.1267C14.5829 8.33821 16.6772 8.13175 18.6977 8.53343C20.7183 8.93511 22.5743 9.92689 24.0312 11.3834L25 12.3521L25.9688 11.3834C27.4257 9.92689 29.2817 8.93511 31.3023 8.53343C33.3228 8.13175 35.4171 8.33821 37.3203 9.1267C39.2235 9.91518 40.8502 11.2503 41.9946 12.9632C43.1391 14.6761 43.75 16.6899 43.75 18.75C43.75 32.5959 26.6417 41.1 25.9125 41.4584C25.6281 41.5961 25.316 41.6674 25 41.6667Z" fill="white"/>
</svg>
