<svg width="50" height="50" viewBox="0 0 50 50" fill="none" xmlns="http://www.w3.org/2000/svg">
<path d="M35.4166 18.75V16.6021C35.4097 13.8394 34.3056 11.1926 32.3472 9.24401C30.3889 7.29539 27.7366 6.20455 24.9739 6.21146C22.2112 6.21837 19.5645 7.32246 17.6158 9.28084C15.6672 11.2392 14.5764 13.8915 14.5833 16.6542V18.75C13.4782 18.75 12.4184 19.189 11.637 19.9704C10.8556 20.7518 10.4166 21.8116 10.4166 22.9167V39.5583C10.4177 40.6697 10.8597 41.7352 11.6456 42.5211C12.4314 43.3069 13.4969 43.7489 14.6083 43.75H35.3937C36.5047 43.7483 37.5697 43.3061 38.3551 42.5203C39.1405 41.7345 39.5822 40.6693 39.5833 39.5583V22.9167C39.5833 21.8116 39.1443 20.7518 38.3629 19.9704C37.5815 19.189 36.5217 18.75 35.4166 18.75ZM18.75 16.6542C18.8377 15.0613 19.5311 13.5624 20.6882 12.4643C21.8454 11.3662 23.3786 10.7521 24.9738 10.7478C26.569 10.7436 28.1055 11.3494 29.2685 12.4413C30.4315 13.5332 31.1329 15.0285 31.2291 16.6208L31.25 18.75H18.75V16.6542ZM35.3916 39.5833L14.5833 39.5583V22.9167H35.4166L35.3916 39.5833Z" fill="white"/>
</svg>
