<svg width="50" height="50" viewBox="0 0 50 50" fill="none" xmlns="http://www.w3.org/2000/svg">
<path d="M41.6667 35.4167H8.33333C7.18274 35.4167 6.25 36.3494 6.25 37.5C6.25 38.6506 7.18274 39.5834 8.33333 39.5834H41.6667C42.8173 39.5834 43.75 38.6506 43.75 37.5C43.75 36.3494 42.8173 35.4167 41.6667 35.4167Z" fill="white"/>
<path d="M41.6667 22.9167H8.33333C7.18274 22.9167 6.25 23.8494 6.25 25C6.25 26.1506 7.18274 27.0834 8.33333 27.0834H41.6667C42.8173 27.0834 43.75 26.1506 43.75 25C43.75 23.8494 42.8173 22.9167 41.6667 22.9167Z" fill="white"/>
<path d="M41.6667 10.4167H8.33333C7.18274 10.4167 6.25 11.3494 6.25 12.5C6.25 13.6506 7.18274 14.5834 8.33333 14.5834H41.6667C42.8173 14.5834 43.75 13.6506 43.75 12.5C43.75 11.3494 42.8173 10.4167 41.6667 10.4167Z" fill="white"/>
</svg>
