<svg width="50" height="50" viewBox="0 0 50 50" fill="none" xmlns="http://www.w3.org/2000/svg">
<path d="M42.2271 11.6958L38.3042 7.7729C37.3278 6.79904 36.0051 6.25214 34.6261 6.25214C33.247 6.25214 31.9243 6.79904 30.9479 7.7729L11.0271 27.6937C10.7981 27.9224 10.6254 28.2013 10.5229 28.5083L6.35627 41.0083C6.23385 41.3754 6.21609 41.7693 6.30497 42.1459C6.39384 42.5225 6.58585 42.8669 6.85946 43.1405C7.13308 43.4142 7.47749 43.6062 7.85409 43.695C8.2307 43.7839 8.62461 43.7662 8.99169 43.6437L21.4917 39.4771C21.7987 39.3746 22.0776 39.202 22.3063 38.9729L42.2271 19.0521C43.201 18.0757 43.7479 16.753 43.7479 15.3739C43.7479 13.9949 43.201 12.6722 42.2271 11.6958ZM15.4459 29.1667L29.1667 15.4458L34.5542 20.8333L20.8334 34.5542L15.4459 29.1667ZM13.4104 33.0229L16.9771 36.5896L11.6271 38.3729L13.4104 33.0229ZM39.2792 16.1062L37.5 17.8875L32.1125 12.5L33.8917 10.7208C34.0864 10.53 34.3482 10.4231 34.6209 10.4231C34.8935 10.4231 35.1553 10.53 35.35 10.7208L39.2729 14.6437C39.4659 14.8378 39.5747 15.1 39.5759 15.3737C39.5771 15.6474 39.4705 15.9105 39.2792 16.1062Z" fill="white"/>
</svg>
