<svg width="50" height="50" viewBox="0 0 50 50" fill="none" xmlns="http://www.w3.org/2000/svg">
<path d="M42.098 39.1521L34.5834 31.6333C36.8012 28.6696 37.8139 24.9758 37.4177 21.2954C37.0216 17.615 35.2459 14.2213 32.4482 11.7975C29.6504 9.37367 26.0384 8.09967 22.3391 8.23195C18.6398 8.36424 15.128 9.89298 12.5105 12.5104C9.89304 15.1279 8.3643 18.6397 8.23202 22.339C8.09973 26.0383 9.37373 29.6504 11.7975 32.4481C14.2214 35.2458 17.615 37.0215 21.2954 37.4177C24.9758 37.8139 28.6697 36.8011 31.6334 34.5833L39.1521 42.1021C39.5433 42.4927 40.0737 42.7119 40.6265 42.7116C41.1794 42.7112 41.7094 42.4912 42.1 42.1C42.4907 41.7088 42.7099 41.1784 42.7095 40.6256C42.7091 40.0727 42.4892 39.5427 42.098 39.1521ZM12.5 22.9166C12.5 20.8564 13.111 18.8425 14.2556 17.1295C15.4002 15.4164 17.027 14.0813 18.9304 13.2929C20.8338 12.5045 22.9283 12.2982 24.9489 12.7001C26.9695 13.1021 28.8256 14.0942 30.2824 15.5509C31.7392 17.0077 32.7313 18.8638 33.1332 20.8845C33.5351 22.9051 33.3289 24.9995 32.5405 26.9029C31.752 28.8063 30.4169 30.4332 28.7039 31.5778C26.9909 32.7224 24.9769 33.3333 22.9167 33.3333C20.155 33.33 17.5075 32.2315 15.5547 30.2787C13.6019 28.3259 12.5033 25.6783 12.5 22.9166Z" fill="white"/>
</svg>
