<svg width="50" height="50" viewBox="0 0 50 50" fill="none" xmlns="http://www.w3.org/2000/svg">
<path d="M41.6667 12.5H35.0937C35.0558 12.41 35.0112 12.323 34.9604 12.2396L31.4187 7.81461C31.0295 7.32518 30.5346 6.93019 29.971 6.65923C29.4075 6.38827 28.7899 6.24838 28.1646 6.25003H21.8354C21.2102 6.24782 20.5926 6.38726 20.029 6.65788C19.4654 6.92849 18.9705 7.32325 18.5812 7.81253L15.0396 12.2396C14.9888 12.323 14.9442 12.41 14.9062 12.5H8.33333C7.7808 12.5 7.25089 12.7195 6.86019 13.1102C6.46949 13.5009 6.25 14.0308 6.25 14.5834C6.25 15.1359 6.46949 15.6658 6.86019 16.0565C7.25089 16.4472 7.7808 16.6667 8.33333 16.6667H10.4167V39.5834C10.4167 40.6863 10.8539 41.7442 11.6326 42.5252C12.4113 43.3063 13.4679 43.7467 14.5708 43.75H35.4271C36.5303 43.7473 37.5875 43.3071 38.3666 42.526C39.1458 41.7449 39.5833 40.6866 39.5833 39.5834V16.6667H41.6667C42.2192 16.6667 42.7491 16.4472 43.1398 16.0565C43.5305 15.6658 43.75 15.1359 43.75 14.5834C43.75 14.0308 43.5305 13.5009 43.1398 13.1102C42.7491 12.7195 42.2192 12.5 41.6667 12.5ZM21.8354 10.4167H28.1646L29.8312 12.5H20.1687L21.8354 10.4167ZM35.4271 39.5834H14.5833V16.6667H35.4167L35.4271 39.5834Z" fill="white"/>
<path d="M29.1667 37.5C28.6141 37.5 28.0842 37.2805 27.6935 36.8898C27.3028 36.4991 27.0833 35.9692 27.0833 35.4167V20.8333C27.0833 20.2808 27.3028 19.7509 27.6935 19.3602C28.0842 18.9695 28.6141 18.75 29.1667 18.75C29.7192 18.75 30.2491 18.9695 30.6398 19.3602C31.0305 19.7509 31.25 20.2808 31.25 20.8333V35.4167C31.25 35.9692 31.0305 36.4991 30.6398 36.8898C30.2491 37.2805 29.7192 37.5 29.1667 37.5ZM20.8333 37.5C20.2808 37.5 19.7509 37.2805 19.3602 36.8898C18.9695 36.4991 18.75 35.9692 18.75 35.4167V20.8333C18.75 20.2808 18.9695 19.7509 19.3602 19.3602C19.7509 18.9695 20.2808 18.75 20.8333 18.75C21.3859 18.75 21.9158 18.9695 22.3065 19.3602C22.6972 19.7509 22.9167 20.2808 22.9167 20.8333V35.4167C22.9167 35.9692 22.6972 36.4991 22.3065 36.8898C21.9158 37.2805 21.3859 37.5 20.8333 37.5Z" fill="white"/>
</svg>
