<svg width="50" height="50" viewBox="0 0 50 50" fill="none" xmlns="http://www.w3.org/2000/svg">
<path d="M42.6542 39.6104C41.1492 35.2743 38.0964 31.6466 34.0812 29.4229C35.76 27.6484 36.8821 25.4209 37.3088 23.0157C37.7355 20.6104 37.4481 18.1329 36.4822 15.8892C35.5162 13.6455 33.914 11.7341 31.8735 10.391C29.8331 9.04796 27.4438 8.33221 25.001 8.33221C22.5582 8.33221 20.169 9.04796 18.1285 10.391C16.0881 11.7341 14.4859 13.6455 13.5199 15.8892C12.5539 18.1329 12.2665 20.6104 12.6932 23.0157C13.1199 25.4209 14.242 27.6484 15.9208 29.4229C11.9057 31.6466 8.85282 35.2743 7.3479 39.6104C8.36292 40.8284 9.50089 41.9384 10.7437 42.9229C11.2525 40.3775 12.4348 38.0153 14.1673 36.0824C15.8998 34.1494 18.119 32.7166 20.5937 31.9333C20.9823 31.8103 21.3262 31.576 21.5829 31.2594C21.8396 30.9428 21.9978 30.5579 22.0379 30.1524C22.0781 29.7468 21.9984 29.3383 21.8087 28.9776C21.619 28.6169 21.3277 28.3197 20.9708 28.1229C19.3539 27.2289 18.0799 25.8228 17.3492 24.1258C16.6184 22.4287 16.4724 20.537 16.9341 18.7479C17.3958 16.9588 18.4389 15.3739 19.8995 14.2424C21.3602 13.1108 23.1554 12.4968 25.0031 12.4968C26.8508 12.4968 28.646 13.1108 30.1067 14.2424C31.5673 15.3739 32.6105 16.9588 33.0721 18.7479C33.5338 20.537 33.3878 22.4287 32.6571 24.1258C31.9263 25.8228 30.6524 27.2289 29.0354 28.1229C28.6785 28.3197 28.3872 28.6169 28.1975 28.9776C28.0078 29.3383 27.9281 29.7468 27.9683 30.1524C28.0084 30.5579 28.1666 30.9428 28.4233 31.2594C28.68 31.576 29.0239 31.8103 29.4125 31.9333C31.8856 32.7168 34.1035 34.1489 35.8351 36.0806C37.5667 38.0123 38.7488 40.3729 39.2583 42.9166C40.5009 41.9342 41.6389 40.8263 42.6542 39.6104Z" fill="#20CFC0"/>
</svg>
