<svg width="339" height="187" viewBox="0 0 339 187" fill="none" xmlns="http://www.w3.org/2000/svg">
<g clip-path="url(#clip0_186_143)">
<path d="M252.018 72.5862C216.633 54.5906 204.524 -6.23889 155.428 0.55349C112.541 6.48214 124.381 62.2635 77.8776 54.4732C49.6836 49.7437 -4.09491 31.6978 1.08239 88.1835C4.22066 122.481 30.2666 157.164 60.5417 174.195C107.423 200.576 112.566 135.101 151.887 130.9C169.55 129.022 176.347 141.332 187.801 150.673C204.642 164.409 227.625 180.434 249.945 185.415C285.456 193.331 328.075 162.849 336.76 127.781C351.931 66.5737 284.634 89.1814 252.018 72.5862Z" fill="#30CFC0"/>
<path opacity="0.9" d="M252.018 72.5862C216.633 54.5906 204.524 -6.23889 155.428 0.55349C112.541 6.48214 124.381 62.2635 77.8776 54.4732C49.6836 49.7437 -4.09491 31.6978 1.08239 88.1835C4.22066 122.481 30.2666 157.164 60.5417 174.195C107.423 200.576 112.566 135.101 151.887 130.9C169.55 129.022 176.347 141.332 187.801 150.673C204.642 164.409 227.625 180.434 249.945 185.415C285.456 193.331 328.075 162.849 336.76 127.781C351.931 66.5737 284.634 89.1814 252.018 72.5862Z" fill="white"/>
<path d="M226.123 157.114H129.718C129.473 157.115 129.23 157.067 129.004 156.974C128.777 156.881 128.571 156.744 128.398 156.571C128.225 156.398 128.088 156.192 127.995 155.966C127.901 155.739 127.854 155.497 127.855 155.252C127.854 155.007 127.901 154.765 127.995 154.538C128.088 154.312 128.225 154.106 128.398 153.933C128.571 153.76 128.777 153.623 129.004 153.53C129.23 153.437 129.473 153.389 129.718 153.39H226.123C226.368 153.389 226.611 153.437 226.837 153.53C227.064 153.623 227.27 153.76 227.443 153.933C227.616 154.106 227.753 154.312 227.846 154.538C227.94 154.765 227.987 155.007 227.986 155.252C227.987 155.497 227.94 155.739 227.846 155.966C227.753 156.192 227.616 156.398 227.443 156.571C227.27 156.744 227.064 156.881 226.837 156.974C226.611 157.067 226.368 157.115 226.123 157.114Z" fill="#30CFC0"/>
<path opacity="0.2" d="M226.123 157.114H129.718C129.473 157.115 129.23 157.067 129.004 156.974C128.777 156.881 128.571 156.744 128.398 156.571C128.225 156.398 128.088 156.192 127.995 155.966C127.901 155.739 127.854 155.497 127.855 155.252C127.854 155.007 127.901 154.765 127.995 154.538C128.088 154.312 128.225 154.106 128.398 153.933C128.571 153.76 128.777 153.623 129.004 153.53C129.23 153.437 129.473 153.389 129.718 153.39H226.123C226.368 153.389 226.611 153.437 226.837 153.53C227.064 153.623 227.27 153.76 227.443 153.933C227.616 154.106 227.753 154.312 227.846 154.538C227.94 154.765 227.987 155.007 227.986 155.252C227.987 155.497 227.94 155.739 227.846 155.966C227.753 156.192 227.616 156.398 227.443 156.571C227.27 156.744 227.064 156.881 226.837 156.974C226.611 157.067 226.368 157.115 226.123 157.114Z" fill="black"/>
<path d="M142.12 123.043H213.721C214.76 123.043 215.757 123.455 216.492 124.19C217.227 124.924 217.64 125.92 217.64 126.959V150.632C217.64 150.994 217.568 151.353 217.429 151.687C217.291 152.022 217.087 152.326 216.831 152.582C216.575 152.839 216.27 153.042 215.935 153.18C215.6 153.319 215.241 153.39 214.879 153.39H140.97C140.238 153.39 139.536 153.1 139.018 152.582C138.5 152.065 138.21 151.363 138.21 150.632V126.959C138.21 125.922 138.621 124.927 139.354 124.193C140.087 123.459 141.082 123.045 142.12 123.043Z" fill="#30CFC0"/>
<path opacity="0.3" d="M213.721 123.043H142.111C141.074 123.045 140.079 123.458 139.346 124.193C138.613 124.927 138.201 125.922 138.201 126.959V135.52C138.854 135.838 139.573 135.996 140.299 135.982C144.494 135.982 144.494 131.638 148.69 131.638C152.886 131.638 152.886 135.982 157.081 135.982C161.277 135.982 161.277 131.638 165.472 131.638C169.668 131.638 169.668 135.982 173.863 135.982C178.059 135.982 178.059 131.638 182.254 131.638C186.45 131.638 186.45 135.982 190.645 135.982C194.841 135.982 194.841 131.638 199.037 131.638C203.232 131.638 203.232 135.982 207.428 135.982C211.623 135.982 211.623 131.638 215.819 131.638C216.551 131.626 217.275 131.787 217.933 132.108V126.959C217.935 126.419 217.825 125.884 217.61 125.389C217.395 124.894 217.079 124.448 216.684 124.08C216.288 123.713 215.821 123.431 215.311 123.252C214.801 123.073 214.26 123.002 213.721 123.043Z" fill="white"/>
<path d="M159.322 99.328H196.519C198.72 99.328 200.831 100.202 202.387 101.757C203.944 103.312 204.818 105.422 204.818 107.621V123.043H151.04V107.621C151.04 105.425 151.912 103.318 153.464 101.763C155.017 100.208 157.123 99.3324 159.322 99.328Z" fill="#30CFC0"/>
<path opacity="0.5" d="M159.322 99.328H196.519C198.72 99.328 200.831 100.202 202.387 101.757C203.944 103.312 204.818 105.422 204.818 107.621V123.043H151.04V107.621C151.04 105.425 151.912 103.318 153.464 101.763C155.017 100.208 157.123 99.3324 159.322 99.328Z" fill="white"/>
<path opacity="0.5" d="M159.322 99.328H196.519C198.718 99.328 200.827 100.201 202.382 101.755C203.936 103.308 204.81 105.416 204.81 107.613V115.865C204.368 116.078 203.882 116.185 203.392 116.175C200.564 116.175 200.564 113.24 197.728 113.24C194.891 113.24 194.9 116.175 192.072 116.175C189.244 116.175 189.244 113.24 186.416 113.24C183.589 113.24 183.58 116.175 180.752 116.175C177.925 116.175 177.891 113.206 175.097 113.206C172.303 113.206 172.269 116.141 169.433 116.141C166.597 116.141 166.605 113.206 163.777 113.206C160.949 113.206 160.949 116.141 158.122 116.141C155.294 116.141 155.286 113.206 152.458 113.206C151.962 113.196 151.47 113.303 151.023 113.517V107.588C151.032 105.394 151.91 103.293 153.465 101.745C155.021 100.197 157.126 99.328 159.322 99.328Z" fill="#30CFC0"/>
<path d="M204.81 111.529C204.125 111.526 203.45 111.374 202.83 111.084C202.21 110.795 201.66 110.374 201.218 109.852C200.945 109.476 200.587 109.17 200.173 108.959C199.758 108.748 199.3 108.638 198.835 108.638C198.37 108.638 197.912 108.748 197.498 108.959C197.084 109.17 196.725 109.476 196.452 109.852C196.02 110.389 195.474 110.822 194.852 111.12C194.231 111.418 193.55 111.573 192.861 111.573C192.171 111.573 191.491 111.418 190.869 111.12C190.248 110.822 189.701 110.389 189.269 109.852C188.996 109.476 188.638 109.17 188.224 108.959C187.809 108.748 187.351 108.638 186.886 108.638C186.421 108.638 185.963 108.748 185.549 108.959C185.135 109.17 184.776 109.476 184.503 109.852C184.071 110.389 183.523 110.823 182.901 111.12C182.279 111.418 181.598 111.573 180.908 111.573C180.218 111.573 179.537 111.418 178.914 111.12C178.292 110.823 177.745 110.389 177.312 109.852C177.039 109.476 176.68 109.17 176.266 108.959C175.852 108.748 175.394 108.638 174.929 108.638C174.464 108.638 174.006 108.748 173.592 108.959C173.177 109.17 172.819 109.476 172.546 109.852C172.114 110.389 171.567 110.822 170.946 111.12C170.324 111.418 169.644 111.573 168.954 111.573C168.265 111.573 167.585 111.418 166.963 111.12C166.342 110.822 165.795 110.389 165.363 109.852C165.09 109.476 164.732 109.17 164.317 108.959C163.903 108.748 163.445 108.638 162.98 108.638C162.515 108.638 162.057 108.748 161.643 108.959C161.228 109.17 160.87 109.476 160.597 109.852C160.164 110.389 159.617 110.823 158.995 111.12C158.372 111.418 157.691 111.573 157.001 111.573C156.311 111.573 155.63 111.418 155.008 111.12C154.386 110.823 153.838 110.389 153.406 109.852C153.125 109.484 152.765 109.183 152.353 108.973C151.94 108.762 151.486 108.647 151.023 108.636C150.794 108.636 150.574 108.545 150.412 108.383C150.25 108.221 150.158 108.001 150.158 107.772C150.158 107.543 150.25 107.324 150.412 107.162C150.574 107 150.794 106.909 151.023 106.909C151.71 106.918 152.388 107.076 153.008 107.373C153.628 107.67 154.176 108.098 154.614 108.628C154.885 109.007 155.243 109.316 155.657 109.529C156.072 109.742 156.531 109.853 156.997 109.853C157.463 109.853 157.923 109.742 158.337 109.529C158.752 109.316 159.109 109.007 159.38 108.628C159.813 108.091 160.36 107.657 160.983 107.359C161.605 107.062 162.286 106.907 162.976 106.907C163.666 106.907 164.347 107.062 164.969 107.359C165.591 107.657 166.139 108.091 166.571 108.628C166.842 109.007 167.2 109.316 167.614 109.529C168.029 109.742 168.488 109.853 168.954 109.853C169.421 109.853 169.88 109.742 170.295 109.529C170.709 109.316 171.067 109.007 171.338 108.628C171.769 108.091 172.316 107.657 172.938 107.36C173.559 107.062 174.24 106.907 174.929 106.907C175.618 106.907 176.299 107.062 176.92 107.36C177.542 107.657 178.089 108.091 178.52 108.628C178.791 109.007 179.149 109.316 179.563 109.529C179.978 109.742 180.437 109.853 180.903 109.853C181.37 109.853 181.829 109.742 182.243 109.529C182.658 109.316 183.016 109.007 183.286 108.628C183.719 108.091 184.267 107.657 184.889 107.359C185.511 107.062 186.192 106.907 186.882 106.907C187.572 106.907 188.253 107.062 188.875 107.359C189.498 107.657 190.045 108.091 190.478 108.628C190.749 109.007 191.106 109.316 191.521 109.529C191.935 109.742 192.395 109.853 192.861 109.853C193.327 109.853 193.786 109.742 194.201 109.529C194.615 109.316 194.973 109.007 195.244 108.628C195.675 108.091 196.222 107.657 196.844 107.36C197.465 107.062 198.146 106.907 198.835 106.907C199.524 106.907 200.205 107.062 200.827 107.36C201.448 107.657 201.995 108.091 202.427 108.628C202.707 108.996 203.067 109.297 203.48 109.509C203.892 109.721 204.346 109.838 204.81 109.852C205.038 109.852 205.256 109.943 205.418 110.104C205.579 110.265 205.67 110.484 205.67 110.712C205.67 110.94 205.579 111.158 205.418 111.319C205.256 111.481 205.038 111.571 204.81 111.571V111.529Z" fill="white"/>
<path d="M217.64 147.898C215.08 147.898 213.771 146.615 212.605 145.483C211.439 144.351 210.65 143.554 208.795 143.554C206.941 143.554 206.035 144.443 204.986 145.483C203.937 146.523 202.527 147.898 199.951 147.898C197.375 147.898 196.083 146.615 194.917 145.483C193.75 144.351 192.961 143.554 191.107 143.554C189.253 143.554 188.346 144.443 187.297 145.483C186.249 146.523 184.839 147.898 182.263 147.898C179.687 147.898 178.403 146.615 177.228 145.483C176.053 144.351 175.273 143.554 173.419 143.554C171.564 143.554 170.666 144.443 169.617 145.483C168.569 146.523 167.159 147.898 164.583 147.898C162.007 147.898 160.715 146.615 159.548 145.483C158.382 144.351 157.601 143.554 155.747 143.554C153.893 143.554 152.986 144.443 151.937 145.483C150.889 146.523 149.479 147.898 146.903 147.898C144.327 147.898 143.034 146.615 141.868 145.483C140.702 144.351 139.913 143.554 138.059 143.554C137.83 143.554 137.612 143.463 137.45 143.302C137.289 143.141 137.198 142.922 137.198 142.694C137.198 142.467 137.289 142.248 137.45 142.087C137.612 141.926 137.83 141.835 138.059 141.835C140.618 141.835 141.927 143.118 143.093 144.25C144.26 145.382 145.048 146.179 146.903 146.179C148.757 146.179 149.663 145.281 150.712 144.25C151.761 143.219 153.171 141.835 155.747 141.835C158.323 141.835 159.607 143.118 160.782 144.25C161.956 145.382 162.737 146.179 164.591 146.179C166.446 146.179 167.343 145.281 168.392 144.25C169.441 143.219 170.851 141.835 173.427 141.835C176.003 141.835 177.295 143.118 178.462 144.25C179.628 145.382 180.417 146.179 182.271 146.179C184.126 146.179 185.032 145.281 186.081 144.25C187.13 143.219 188.539 141.835 191.115 141.835C193.691 141.835 194.984 143.118 196.15 144.25C197.316 145.382 198.105 146.179 199.96 146.179C201.814 146.179 202.72 145.281 203.769 144.25C204.818 143.219 206.228 141.835 208.804 141.835C211.38 141.835 212.672 143.118 213.838 144.25C215.005 145.382 215.794 146.179 217.648 146.179C217.876 146.179 218.095 146.269 218.256 146.43C218.418 146.592 218.508 146.81 218.508 147.038C218.508 147.266 218.418 147.485 218.256 147.646C218.095 147.807 217.876 147.898 217.648 147.898H217.64Z" fill="white"/>
<path d="M177.052 77.148H178.73C178.884 77.148 179.037 77.1783 179.18 77.2373C179.322 77.2963 179.452 77.3828 179.561 77.4918C179.67 77.6008 179.756 77.7303 179.816 77.8727C179.875 78.0151 179.905 78.1678 179.905 78.322V99.2861H175.852V78.322C175.852 78.1657 175.883 78.0109 175.944 77.8668C176.004 77.7227 176.093 77.5922 176.205 77.4828C176.317 77.3735 176.449 77.2875 176.595 77.23C176.74 77.1725 176.896 77.1446 177.052 77.148Z" fill="#30CFC0"/>
<path opacity="0.6" d="M179.947 79.3702L175.894 82.1543V85.257L179.947 82.4645V79.3702Z" fill="white"/>
<path opacity="0.6" d="M179.947 85.3073L175.894 88.0997V91.194L179.947 88.4099V85.3073Z" fill="white"/>
<path opacity="0.6" d="M179.947 91.2527L175.894 94.0451V97.1394L179.947 94.347V91.2527Z" fill="white"/>
<path opacity="0.6" d="M181.248 73.517C182.682 69.9447 177.95 68.1167 177.95 65.6597C176.49 66.2299 174.09 70.0705 174.375 72.1921C174.661 74.3137 176.221 76.0411 178.495 75.7224C179.106 75.6241 179.68 75.3692 180.163 74.9827C180.645 74.5961 181.019 74.0911 181.248 73.517Z" fill="#30CFC0"/>
<path d="M166.144 80.9384H167.553C167.811 80.9384 168.059 81.0408 168.242 81.2233C168.424 81.4057 168.527 81.6531 168.527 81.9111V99.3281H165.17V81.9111C165.17 81.6531 165.273 81.4057 165.455 81.2233C165.638 81.0408 165.885 80.9384 166.144 80.9384Z" fill="#30CFC0"/>
<path opacity="0.6" d="M168.51 82.7581L165.145 85.0725V87.6469L168.51 85.3241V82.7581Z" fill="white"/>
<path opacity="0.6" d="M168.51 87.6887L165.145 90.0032V92.5775L168.51 90.2631V87.6887Z" fill="white"/>
<path opacity="0.6" d="M168.51 92.6279L165.145 94.9424V97.5084L168.51 95.1939V92.6279Z" fill="white"/>
<path opacity="0.6" d="M169.617 77.9027C170.809 74.9341 166.882 73.4163 166.882 71.3702C165.674 71.8482 163.677 75.0348 163.92 76.7958C164.163 78.5567 165.447 79.9991 167.335 79.7307C167.841 79.6487 168.317 79.4372 168.717 79.1169C169.117 78.7966 169.427 78.3783 169.617 77.9027Z" fill="#30CFC0"/>
<path d="M188.22 80.9384H189.639C189.897 80.9384 190.144 81.0408 190.327 81.2233C190.509 81.4057 190.612 81.6531 190.612 81.9111V99.3281H187.255V81.9111C187.255 81.6545 187.357 81.4084 187.538 81.2262C187.718 81.044 187.964 80.9406 188.22 80.9384Z" fill="#30CFC0"/>
<path opacity="0.6" d="M190.612 82.7581L187.239 85.0725V87.6469L190.612 85.3241V82.7581Z" fill="white"/>
<path opacity="0.6" d="M190.612 87.6887L187.239 90.0032V92.5775L190.612 90.2631V87.6887Z" fill="white"/>
<path opacity="0.6" d="M190.612 92.6279L187.239 94.9424V97.5084L190.612 95.1939V92.6279Z" fill="white"/>
<path opacity="0.6" d="M191.72 77.9027C192.903 74.9341 188.976 73.4163 188.976 71.3702C187.767 71.8482 185.779 75.0348 186.014 76.7958C186.249 78.5567 187.549 79.9991 189.429 79.7307C189.936 79.6493 190.413 79.4381 190.815 79.1178C191.216 78.7975 191.528 78.3789 191.72 77.9027Z" fill="#30CFC0"/>
</g>
<defs>
<clipPath id="clip0_186_143">
<rect width="339" height="187" fill="white"/>
</clipPath>
</defs>
</svg>
