<svg width="294" height="273" viewBox="0 0 294 273" fill="none" xmlns="http://www.w3.org/2000/svg">
<g clip-path="url(#clip0_190_486)">
<path d="M34.2328 37.0955L35.2345 34.7815C43.6902 15.2815 61.9612 1.70301 82.9835 0.156012C85.6878 -0.0422385 88.4031 -0.0422385 91.1075 0.156012C110.621 1.60551 129.074 13.6565 138.434 31.057C143.936 41.288 146.766 53.5535 155.573 61.061C167.034 70.811 183.932 68.861 198.684 66.3715C213.436 63.882 230.354 61.9515 241.769 71.773C248.924 77.9285 252.261 87.62 253.055 97.071C255.149 122.09 240.891 146.679 220.389 160.771C199.887 174.863 174.084 179.387 149.316 177.847C114.608 175.656 79.9264 161.395 56.6535 135.2C33.3807 109.005 23.0777 70.356 34.2328 37.0955Z" fill="#F5F5F5"/>
<path d="M293.551 272.486C293.551 272.584 230.263 272.655 152.21 272.655C74.1569 272.655 10.8559 272.584 10.8559 272.486C10.8559 272.389 74.1504 272.35 152.204 272.35C230.257 272.35 293.551 272.395 293.551 272.486Z" fill="#263238"/>
<path d="M208.142 182C207.318 181.554 206.643 180.877 206.201 180.052C205.758 179.228 205.567 178.291 205.65 177.359C205.761 176.286 206.249 175.214 206.008 174.161C205.701 173.32 205.235 172.545 204.636 171.879C203.736 170.553 203.252 168.989 203.247 167.386C203.241 165.784 203.713 164.216 204.603 162.883C203.703 162.35 202.935 161.622 202.354 160.752C201.773 159.883 201.395 158.894 201.247 157.859C200.896 156.032 202.262 152.561 202.262 152.561C202.262 152.561 200.649 151.495 199.94 148.525C199.523 146.77 200.369 143.552 201.631 142.259C198.339 140.068 197.52 134.933 199.972 131.859C198.751 130.448 197.976 128.707 197.744 126.856C197.513 125.005 197.835 123.127 198.671 121.459C197.263 120.298 196.32 118.669 196.015 116.871C195.709 115.072 196.061 113.224 197.006 111.663C195.722 110.255 194.785 108.567 194.268 106.734C193.751 104.9 193.668 102.972 194.027 101.101C194.027 101.101 191.562 91.1495 192.206 89.1345C192.492 88.244 188.83 96.655 187.789 111.176C186.749 125.697 192.772 169.026 196.245 186.641C199.718 204.256 211.14 223.983 211.14 223.983L225.671 222.17C225.671 222.17 210.613 196.215 208.792 185.841L208.747 182.708" fill="#455A64"/>
<g opacity="0.3">
<path d="M211.569 186.699C210.717 184.255 208.681 183.228 207.14 181.148C204.142 186.102 202.636 191.813 202.801 197.6C203.036 203.339 204.369 208.968 205.696 214.558L209.865 213.258L211.778 190.326C211.966 189.116 211.895 187.88 211.569 186.699Z" fill="black"/>
</g>
<path d="M283.645 133.386C284.861 133.133 272.848 165.977 270.421 184.457C267.995 202.936 259.442 225.979 256.014 231.718C252.586 237.458 242.908 232.212 242.908 232.212L257.868 194.883L259.117 183.391C259.117 183.391 262.655 177.495 262.525 171.775C262.525 171.775 265.608 170.235 266.252 164.066C266.252 164.066 269.504 163.28 270.213 156.617C270.213 156.617 272.561 151.06 272.535 147.576C272.535 147.55 279.111 134.335 283.645 133.386Z" fill="#455A64"/>
<g opacity="0.3">
<path d="M257.035 197.6C257.478 201.809 257.36 206.058 256.684 210.236L262.499 207.064C262.336 210.268 260.704 213.252 258.544 215.624C256.385 217.997 253.718 219.836 251.077 221.656C252.335 213.127 254.196 204.697 256.645 196.43" fill="black"/>
</g>
<path d="M286.026 156.903C285.791 157.488 283.599 170.846 282.325 179.068C281.219 186.186 279.469 202.098 273.277 212.537C267.085 222.976 258.317 231.614 252.632 235.163C243.831 240.682 236.41 240.597 236.41 240.597L254.973 214.5C254.973 214.5 262.343 210.665 261.406 207.35L262.167 202.936C262.167 202.936 267.488 201.695 268.067 196.313C268.067 196.313 273.27 191.665 272.978 184.613C272.978 184.613 277.394 181.434 276.731 176.904C276.731 176.904 280.289 173.615 279.593 170.865C279.593 170.865 282.845 168.35 281.72 164.983L286.026 156.903Z" fill="#455A64"/>
<path d="M286.026 156.903C285.7 157.521 284.445 159.952 281.824 165.002V164.924C282.161 165.943 282.141 167.046 281.765 168.051C281.339 169.182 280.624 170.182 279.69 170.95L279.742 170.813C279.859 171.36 279.859 171.925 279.742 172.471C279.594 173.034 279.376 173.575 279.092 174.083C278.487 175.161 277.726 176.144 276.835 177.001L276.88 176.865C277.071 178.326 276.805 179.811 276.119 181.116C275.381 182.529 274.345 183.764 273.082 184.736L273.186 184.6C273.232 186.816 272.816 189.018 271.964 191.065C271.111 193.112 269.842 194.959 268.236 196.488L268.301 196.358C268.142 197.938 267.489 199.428 266.434 200.616C265.31 201.847 263.86 202.735 262.252 203.177L262.421 203.001C262.187 204.366 261.927 205.881 261.66 207.408V207.311C261.751 207.742 261.75 208.188 261.658 208.619C261.566 209.05 261.385 209.457 261.127 209.813C260.656 210.538 260.087 211.195 259.436 211.763C258.107 212.908 256.657 213.902 255.11 214.727L255.195 214.656C249.451 222.742 243.174 231.556 236.631 240.779L236.436 240.389C237.187 240.369 237.936 240.306 238.68 240.201C242.146 239.694 245.512 238.652 248.658 237.113C251.718 235.646 254.563 233.768 257.113 231.53C261.975 227.295 266.3 222.482 269.992 217.197C271.744 214.765 273.297 212.196 274.636 209.514C275.842 206.96 276.857 204.321 277.674 201.617C279.109 196.726 280.217 191.744 280.991 186.706C282.377 177.476 283.625 170.014 284.51 164.872C284.952 162.272 285.31 160.322 285.564 158.951C285.694 158.301 285.798 157.761 285.882 157.417C285.915 157.242 285.963 157.07 286.026 156.903C286.026 156.903 285.525 159.744 284.725 164.905C283.925 170.066 282.708 177.515 281.368 186.758C280.618 191.808 279.531 196.802 278.116 201.708C277.3 204.438 276.283 207.104 275.072 209.683C273.73 212.389 272.172 214.982 270.415 217.438C266.71 222.761 262.365 227.61 257.478 231.874C254.887 234.146 251.995 236.051 248.885 237.536C245.678 239.1 242.246 240.153 238.712 240.656C237.943 240.765 237.167 240.828 236.39 240.844H235.902L236.189 240.448C242.732 231.25 249.022 222.423 254.772 214.337V214.298L254.824 214.266C256.34 213.464 257.76 212.493 259.058 211.373C259.676 210.84 260.218 210.226 260.671 209.547C260.897 209.244 261.056 208.897 261.139 208.529C261.221 208.16 261.226 207.779 261.153 207.408V207.363V207.35C261.419 205.816 261.686 204.301 261.92 202.936V202.806L262.063 202.761C263.583 202.342 264.955 201.507 266.024 200.349C267.028 199.23 267.65 197.821 267.8 196.326V196.254L267.859 196.196C271.189 192.946 272.913 188.539 272.724 184.626V184.535L272.802 184.476C274.023 183.54 275.028 182.352 275.749 180.992C276.416 179.752 276.68 178.334 276.503 176.936V176.8L276.562 176.741C277.433 175.912 278.178 174.959 278.773 173.914C279.039 173.429 279.244 172.914 279.385 172.38C279.492 171.874 279.492 171.352 279.385 170.846V170.761L279.45 170.709C280.353 169.977 281.05 169.023 281.472 167.94C281.843 166.987 281.873 165.936 281.557 164.963V164.918V164.879L286.026 156.903Z" fill="#263238"/>
<path d="M217.664 56.7905C217.664 56.7905 209.774 69.4135 209.247 90.4475C208.721 111.482 213.456 198.731 213.456 198.731L219.511 216.665L230.036 213.506C230.036 213.506 223.973 156.449 223.453 147.771C222.933 139.094 220.786 105.437 219.622 93.08C218.458 80.7235 216.09 58.6365 217.664 56.7905Z" fill="#263238"/>
<path d="M169.024 154.758C169.024 154.758 172.972 188.422 179.704 203.937C191.113 230.243 227.187 238.764 227.187 238.764L208.09 213.85C208.09 213.85 202.886 215.93 201.585 209.683C201.585 209.683 194.554 207.083 195.081 203.183C193.547 202.691 192.177 201.788 191.121 200.572C190.065 199.356 189.362 197.874 189.09 196.287C187.349 195.657 185.88 194.445 184.932 192.857C183.983 191.268 183.614 189.4 183.887 187.57C183.887 187.57 179.815 186.498 180.634 181.519C180.634 181.519 176.153 178.62 176.901 173.147C176.901 173.147 174 171.073 174.247 166.101L169.024 154.758Z" fill="#455A64"/>
<path d="M169.024 154.758L174.319 166.023C174.255 167.234 174.407 168.447 174.767 169.604C175.161 170.904 175.917 172.066 176.946 172.952L177.018 173.01V173.088C176.816 174.582 177.02 176.102 177.61 177.489C178.278 179.013 179.345 180.329 180.699 181.298L180.797 181.369V181.473C180.567 182.648 180.699 183.865 181.174 184.964C181.453 185.519 181.84 186.014 182.312 186.418C182.785 186.822 183.333 187.128 183.926 187.317L184.082 187.362V187.518C183.85 189.256 184.178 191.023 185.018 192.562C185.97 194.15 187.433 195.367 189.168 196.014L189.285 196.059V196.176C189.565 197.679 190.223 199.087 191.198 200.265C192.232 201.484 193.582 202.395 195.1 202.897L195.289 202.956V203.138C195.12 204.6 196.121 205.998 197.37 206.973C198.671 207.992 200.118 208.81 201.663 209.397L201.787 209.443V209.566C201.999 210.968 202.713 212.246 203.797 213.161C204.415 213.551 205.116 213.791 205.844 213.86C206.571 213.929 207.305 213.825 207.986 213.557L208.155 213.499L208.265 213.635L227.356 238.563L227.798 239.141L227.102 238.953L225.658 238.576C218.541 236.534 211.68 233.688 205.208 230.093C199.154 226.811 193.62 222.651 188.784 217.75C184.403 213.274 180.987 207.946 178.748 202.098C176.882 197.011 175.38 191.798 174.254 186.498C172.094 176.8 170.891 168.844 170.091 163.351C169.707 160.602 169.44 158.47 169.258 157.014C169.174 156.299 169.115 155.753 169.07 155.363C169.024 154.973 169.03 154.778 169.024 154.797C169.017 154.817 169.07 154.992 169.122 155.356C169.174 155.72 169.252 156.292 169.356 157.001C169.57 158.463 169.883 160.595 170.286 163.325C171.144 168.805 172.4 176.748 174.598 186.42C175.747 191.703 177.269 196.899 179.151 201.968C181.386 207.756 184.784 213.026 189.136 217.451C193.946 222.339 199.454 226.487 205.481 229.762C211.921 233.339 218.747 236.174 225.827 238.212L227.245 238.589L226.991 238.979L207.92 214.038L208.194 214.116C207.44 214.413 206.626 214.526 205.82 214.447C205.014 214.368 204.238 214.099 203.556 213.661C202.377 212.671 201.6 211.284 201.371 209.761L201.514 209.93C199.914 209.301 198.42 208.431 197.084 207.35C196.42 206.838 195.854 206.21 195.412 205.497C194.974 204.783 194.778 203.947 194.853 203.112L195.016 203.352C193.403 202.831 191.968 201.869 190.872 200.577C189.851 199.339 189.166 197.859 188.882 196.28L189.019 196.443C187.228 195.806 185.717 194.564 184.744 192.933C183.772 191.301 183.4 189.382 183.691 187.505L183.828 187.707C183.186 187.502 182.592 187.17 182.08 186.731C181.568 186.292 181.15 185.755 180.849 185.152C180.35 183.985 180.214 182.694 180.459 181.447L180.537 181.616C179.132 180.605 178.026 179.233 177.337 177.645C176.739 176.208 176.537 174.637 176.751 173.095L176.81 173.231C175.738 172.304 174.957 171.088 174.559 169.728C174.194 168.542 174.046 167.3 174.123 166.062V166.114L169.024 154.758Z" fill="#263238"/>
<path d="M276.802 96.3104C276.802 96.3104 260.574 103.681 250.739 143.559C246.687 159.984 256.281 193.407 256.281 193.407L262.434 165.639C262.434 165.639 257.283 163.416 260.801 158.086C260.801 158.086 257.686 151.274 260.801 148.889C260.07 147.457 259.743 145.852 259.858 144.248C259.973 142.644 260.524 141.102 261.452 139.789C260.671 138.111 260.495 136.215 260.954 134.423C261.413 132.63 262.478 131.051 263.969 129.954C263.969 129.954 261.855 126.301 265.972 123.383C265.972 123.383 264.873 118.183 269.283 114.835C269.283 114.835 268.704 111.312 272.412 107.984L276.802 96.3104Z" fill="#263238"/>
<path d="M240.82 36.9525C241.47 35.7175 233.19 47.853 231.876 58.11C230.562 68.367 230.036 75.9915 230.036 75.9915C230.036 75.9915 231.662 83.1415 229.079 86.3915C229.079 86.3915 232.475 95.615 229.079 100.769C229.079 100.769 231.798 109.447 229.079 112.84C229.079 112.84 231.935 121.517 229.079 124.501C229.079 124.501 232.884 131.963 229.079 135.492C229.079 135.492 231.798 142.948 228.539 145.665C228.539 145.665 231.935 151.97 228.539 154.765C228.539 154.765 231.525 166.666 226.913 168.025C226.913 168.025 228.631 178.464 225.665 179.822C225.665 179.822 227.616 189.722 224.058 191.893C224.058 191.893 225.008 201.389 222.568 203.697C222.568 203.697 224.468 210.749 222.022 214.006C219.576 217.262 223.453 235.579 223.453 235.579H238.803L241.405 221.734C241.405 221.734 240.319 155.272 240.052 144.423C239.786 133.575 237.607 98.8455 237.607 98.8455C237.607 98.8455 236.956 66.8395 236.794 63.0435C236.631 59.2475 238.712 41.119 240.82 36.9525Z" fill="#455A64"/>
<path d="M254.323 73.0339C254.323 73.0339 247.649 96.9799 250.986 122.739C254.323 148.499 259.481 180.934 256.45 199.725C254.954 208.415 252.739 216.966 249.828 225.29C248.67 228.653 246.856 231.754 244.491 234.412C242.127 237.071 239.258 239.235 236.052 240.779C236.052 240.779 229.151 230.555 230.361 225.595C231.571 220.636 236.605 212.751 236.605 212.751C236.605 212.751 242.192 203.97 240.982 198.815C240.982 198.815 244.319 194.571 243.708 189.715C243.708 189.715 246.739 182.442 245.223 178.197C245.223 178.197 249.471 173.043 247.35 166.985C247.35 166.985 248.56 164.255 246.739 158.197C246.739 158.197 245.835 148.798 243.708 146.068C243.708 146.068 246.114 140.868 243.708 136.448C243.708 136.448 245.575 131.391 243.057 127.445C243.607 126.257 243.892 124.962 243.892 123.653C243.892 122.343 243.607 121.049 243.057 119.86C243.057 119.86 244.957 116.07 242.589 113.067C242.589 113.067 243.851 108.01 243.057 105.17C243.057 105.17 244.547 100.269 243.708 97.4284C244.633 95.2022 245.261 92.8637 245.575 90.4734C245.575 90.4734 248.736 87.9449 247.793 83.9734C247.793 83.9734 250.004 84.2854 250.479 79.2349L254.323 73.0339Z" fill="#455A64"/>
<path d="M254.323 73.034C254.076 73.437 252.957 75.3025 250.537 79.3C250.461 80.2173 250.278 81.1226 249.991 81.9975C249.827 82.4929 249.576 82.9552 249.25 83.3625C249.074 83.5908 248.85 83.7775 248.593 83.909C248.337 84.0404 248.055 84.1135 247.767 84.123L247.871 84.006C248.139 85.129 248.099 86.3036 247.754 87.4055C247.343 88.6386 246.611 89.7402 245.633 90.597L245.679 90.519C245.378 92.9203 244.75 95.2691 243.812 97.5V97.409C244.1 98.6691 244.151 99.9718 243.961 101.25C243.805 102.596 243.537 103.927 243.161 105.228V105.144C243.445 106.424 243.513 107.742 243.363 109.044C243.242 110.418 243.024 111.782 242.713 113.126V112.983C243.45 113.929 243.875 115.081 243.929 116.278C243.989 117.544 243.744 118.806 243.213 119.957V119.801C243.778 121.015 244.071 122.337 244.071 123.675C244.071 125.014 243.778 126.336 243.213 127.549V127.361C244.833 129.896 244.931 133.399 243.909 136.532V136.376C245.438 139.191 245.275 142.935 243.909 146.179V145.964C244.492 146.814 244.931 147.754 245.21 148.746C245.525 149.743 245.788 150.757 245.997 151.782C246.438 153.9 246.773 156.039 246.999 158.19V158.151C247.428 159.548 247.733 160.979 247.91 162.429C248.144 163.988 248.039 165.58 247.604 167.095V166.933C248.246 168.804 248.376 170.812 247.981 172.75C247.574 174.79 246.709 176.71 245.451 178.366L245.49 178.139C246.017 180.047 246.073 182.055 245.653 183.989C245.288 185.99 244.726 187.949 243.974 189.839V189.722C244.345 192.842 243.2 196.222 241.197 198.991L241.243 198.783C241.525 200.564 241.389 202.387 240.846 204.107C240.349 205.835 239.696 207.514 238.895 209.124C238.106 210.761 237.218 212.348 236.234 213.876C235.298 215.43 234.393 217.022 233.541 218.647C232.682 220.279 231.918 221.959 231.252 223.678C231.109 224.12 230.94 224.549 230.816 224.978L230.634 225.628L230.536 226.278C230.494 226.728 230.494 227.18 230.536 227.63C230.614 228.079 230.653 228.54 230.764 228.988C231.221 230.811 231.876 232.579 232.715 234.26C233.536 235.974 234.448 237.642 235.447 239.258L236.052 240.22L236.208 240.454L236.286 240.578C236.579 240.662 235.922 240.533 236.013 240.526L236.078 240.493L236.579 240.234C237.229 239.902 237.88 239.512 238.53 239.122C239.804 238.332 241.005 237.432 242.121 236.431C244.347 234.46 246.225 232.129 247.676 229.535C249.165 226.98 249.978 224.139 250.895 221.364C251.812 218.588 252.612 215.793 253.347 213.018C254.847 207.582 255.953 202.044 256.658 196.45C257.169 191.068 257.3 185.658 257.048 180.258C256.658 169.695 255.552 159.699 254.447 150.358C253.341 141.018 252.099 132.346 251.077 124.41C250.798 122.46 250.635 120.477 250.427 118.56C250.219 116.642 250.173 114.809 250.056 113.009C249.946 109.401 249.926 106.002 250.056 102.823C250.264 97.383 250.772 91.958 251.578 86.5735C252.229 82.147 252.944 78.741 253.471 76.44C253.731 75.296 253.952 74.425 254.121 73.84C254.199 73.554 254.258 73.3395 254.304 73.19L254.375 72.969C254.304 73.281 254.076 74.269 253.582 76.4725C253.087 78.7735 252.417 82.1795 251.786 86.606C251.015 91.98 250.533 97.3914 250.342 102.817C250.225 105.989 250.251 109.389 250.381 112.983C250.498 114.777 250.589 116.629 250.765 118.521C250.941 120.412 251.149 122.349 251.416 124.326C252.456 132.255 253.692 140.933 254.843 150.273C255.995 159.614 257.1 169.611 257.51 180.173C257.765 185.592 257.639 191.022 257.133 196.423C256.43 202.042 255.324 207.603 253.822 213.063C253.081 215.852 252.255 218.641 251.364 221.436C250.472 224.23 249.627 227.084 248.111 229.697C246.637 232.341 244.726 234.717 242.459 236.723C241.321 237.743 240.096 238.661 238.797 239.467C238.147 239.863 237.496 240.259 236.794 240.598L236.28 240.864L236.221 240.896C236.26 240.935 235.571 240.708 235.857 240.773L235.779 240.656L235.623 240.409L235.011 239.44C234.001 237.808 233.08 236.122 232.254 234.39C231.413 232.675 230.759 230.875 230.302 229.021C230.192 228.553 230.146 228.072 230.068 227.597C230.026 227.113 230.026 226.626 230.068 226.141L230.179 225.413L230.367 224.731C230.491 224.269 230.666 223.834 230.816 223.385C231.487 221.645 232.26 219.945 233.132 218.296C233.984 216.658 234.901 215.046 235.844 213.499C236.817 211.982 237.699 210.408 238.485 208.786C239.267 207.202 239.907 205.551 240.397 203.853C240.922 202.212 241.055 200.472 240.787 198.77V198.659L240.852 198.568C242.804 195.923 243.896 192.608 243.539 189.657V189.592V189.533C244.281 187.672 244.835 185.74 245.191 183.768C245.594 181.923 245.547 180.008 245.054 178.184L245.015 178.068L245.093 177.964C246.303 176.367 247.137 174.519 247.532 172.555C247.916 170.694 247.795 168.764 247.181 166.965V166.894V166.803C247.583 165.361 247.678 163.851 247.461 162.37C247.288 160.945 246.992 159.538 246.576 158.164V158.125C246.359 155.987 246.033 153.861 245.601 151.755C245.393 150.746 245.135 149.748 244.827 148.765C244.565 147.818 244.15 146.92 243.597 146.107L243.526 146.009L243.578 145.893C244.879 142.773 245.048 139.126 243.578 136.448L243.539 136.376V136.292C244.534 133.269 244.443 129.85 242.888 127.452L242.83 127.367L242.875 127.263C243.415 126.101 243.695 124.834 243.695 123.552C243.695 122.27 243.415 121.003 242.875 119.84L242.843 119.769L242.882 119.691C243.383 118.593 243.619 117.393 243.571 116.187C243.523 115.057 243.126 113.969 242.433 113.074L242.387 113.015V112.937C242.699 111.611 242.916 110.264 243.038 108.907C243.185 107.643 243.124 106.363 242.856 105.118V105.072V105.033C243.227 103.757 243.494 102.453 243.656 101.133C243.845 99.8906 243.803 98.6237 243.532 97.396V97.3505V97.3115C244.466 95.1033 245.096 92.7791 245.405 90.402V90.35L245.444 90.3175C246.392 89.4935 247.104 88.4324 247.506 87.243C247.848 86.179 247.895 85.0426 247.643 83.954L247.61 83.837H247.819C248.072 83.8234 248.319 83.7554 248.544 83.6376C248.768 83.5199 248.965 83.3551 249.119 83.1545C249.43 82.7648 249.672 82.3252 249.835 81.8545C250.124 80.9951 250.311 80.1052 250.394 79.2025L254.323 73.034Z" fill="#263238"/>
<g opacity="0.3">
<path d="M236.657 239.85C235.428 232.654 232.774 225.775 228.852 219.615C226.9 216.606 224.695 213.765 223.277 210.476C221.859 207.187 221.326 203.326 222.959 200.076C221.854 199.133 221.02 197.915 220.54 196.545C220.06 195.175 219.952 193.702 220.227 192.276C218.481 190.972 217.174 189.168 216.477 187.105C215.78 185.041 215.727 182.814 216.324 180.719L211.869 178.1L211.439 191.529L213.065 212.771L222.217 227.376L236.657 239.85Z" fill="black"/>
</g>
<path d="M214.561 149.019C214.561 149.669 211.641 162.871 209.774 170.976C208.161 177.996 203.881 193.421 205.754 205.426C207.628 217.432 213.417 229.06 220.253 234.579C228.904 241.566 236.976 240.767 236.976 240.767L222.016 214.019C222.016 214.019 216.597 207.721 218.685 205.01L219.615 200.636C219.615 200.636 215.14 197.509 216.597 192.296C216.597 192.296 213.469 186.043 216.389 179.582C216.389 179.582 213.469 174.993 215.739 171.035C215.739 171.035 213.651 166.654 215.323 164.359C215.323 164.359 213.235 160.817 215.531 158.106L214.561 149.019Z" fill="#455A64"/>
<path d="M214.561 149.019C214.646 149.708 214.978 152.425 215.661 158.08V158.119V158.152C215.006 158.94 214.641 159.929 214.627 160.953C214.625 162.115 214.921 163.258 215.485 164.275L215.524 164.353L215.479 164.418C215.196 164.85 215.007 165.337 214.926 165.848C214.857 166.398 214.857 166.955 214.926 167.505C215.095 168.694 215.435 169.852 215.934 170.944L215.966 171.022L215.927 171.093C215.246 172.325 214.966 173.738 215.127 175.136C215.289 176.667 215.781 178.144 216.571 179.465L216.623 179.55L216.584 179.634C215.753 181.629 215.345 183.773 215.384 185.934C215.423 188.094 215.909 190.222 216.812 192.186V192.257V192.329C216.403 193.774 216.46 195.311 216.975 196.723C217.535 198.197 218.5 199.483 219.759 200.434L219.876 200.525V200.662C219.596 202.014 219.277 203.515 218.952 205.036V205.088L218.919 205.127C218.713 205.443 218.576 205.8 218.517 206.173C218.457 206.546 218.477 206.927 218.575 207.292C218.742 208.09 219.018 208.862 219.394 209.586C220.188 211.106 221.148 212.534 222.256 213.844C226.887 222.125 231.948 231.173 237.216 240.591L237.405 240.936H237.021C235.457 241.005 233.89 240.878 232.358 240.559C228.834 239.849 225.486 238.446 222.51 236.431C219.597 234.514 217.066 232.074 215.043 229.236C211.257 223.893 208.478 217.907 206.841 211.569C206.033 208.626 205.491 205.618 205.221 202.579C205.016 199.713 205.04 196.835 205.293 193.973C205.766 188.847 206.596 183.76 207.777 178.75C209.969 169.585 211.68 162.156 212.812 157.014C213.378 154.453 213.82 152.464 214.113 151.093C214.373 149.877 214.49 149.312 214.548 149.019C214.548 149.2 214.531 149.381 214.496 149.559C214.438 149.91 214.347 150.43 214.21 151.112C213.95 152.471 213.56 154.479 212.987 157.053C211.888 162.201 210.256 169.657 208.103 178.828C206.95 183.826 206.146 188.897 205.696 194.006C205.447 196.846 205.43 199.703 205.644 202.547C205.924 205.557 206.468 208.537 207.27 211.452C208.894 217.745 211.649 223.692 215.401 229.002C217.395 231.79 219.887 234.188 222.751 236.074C225.675 238.05 228.962 239.426 232.423 240.123C233.908 240.432 235.427 240.557 236.943 240.494L236.748 240.864L221.801 214.11V214.149C220.671 212.81 219.694 211.349 218.887 209.794C218.493 209.028 218.204 208.213 218.028 207.37C217.922 206.943 217.906 206.498 217.983 206.065C218.059 205.632 218.225 205.219 218.471 204.854L218.425 204.945C218.75 203.424 219.076 201.923 219.362 200.571L219.446 200.792C218.124 199.791 217.11 198.44 216.519 196.892C215.979 195.397 215.924 193.771 216.363 192.244V192.394C215.44 190.376 214.947 188.19 214.914 185.972C214.882 183.754 215.311 181.554 216.175 179.511V179.68C215.36 178.311 214.856 176.78 214.698 175.195C214.539 173.728 214.841 172.249 215.563 170.963V171.106C215.054 169.981 214.715 168.788 214.555 167.564C214.48 166.987 214.48 166.404 214.555 165.828C214.65 165.28 214.859 164.758 215.166 164.294V164.437C214.587 163.375 214.291 162.182 214.308 160.973C214.332 159.9 214.722 158.868 215.414 158.048V158.126C214.9 152.432 214.646 149.715 214.561 149.019Z" fill="#263238"/>
<path d="M257.348 272.486H205.293L199.322 231.933H263.319L257.348 272.486Z" fill="#30CFC0"/>
<path d="M194.547 241.182L194.521 231.933H268.041L267.455 241.182H194.547Z" fill="#30CFC0"/>
<path d="M267.455 241.182C267.455 241.319 251.11 241.429 230.953 241.429C210.795 241.429 194.45 241.319 194.45 241.182C194.45 241.046 210.789 240.929 230.953 240.929C251.116 240.929 267.455 241.046 267.455 241.182Z" fill="#263238"/>
<g opacity="0.3">
<path d="M203.003 241.111C209.508 244.159 220.949 245.381 231.447 245.011C240.96 244.6 250.408 243.239 259.65 240.948L203.003 241.111Z" fill="black"/>
</g>
<g opacity="0.3">
<path d="M241.021 215.208C241.288 215.293 240.95 217.022 240.104 218.998C239.259 220.974 238.251 222.423 238.003 222.293C237.756 222.163 238.342 220.538 239.168 218.601C239.994 216.664 240.755 215.15 241.021 215.208Z" fill="white"/>
</g>
<g opacity="0.3">
<path d="M249.77 211.458C250.024 211.588 249.295 213.532 248.144 215.807C246.993 218.082 245.867 219.817 245.614 219.707C245.36 219.596 246.088 217.64 247.24 215.365C248.391 213.09 249.49 211.335 249.77 211.458Z" fill="white"/>
</g>
<g opacity="0.3">
<path d="M247.91 204.34C248.163 204.457 247.565 206.251 246.576 208.338C245.588 210.424 244.579 212.017 244.326 211.9C244.072 211.783 244.67 209.989 245.659 207.902C246.648 205.816 247.656 204.217 247.91 204.34Z" fill="white"/>
</g>
<g opacity="0.3">
<path d="M248.196 196.007C248.463 196.105 248.15 197.606 247.506 199.368C246.862 201.129 246.127 202.468 245.867 202.364C245.607 202.26 245.913 200.752 246.557 199.004C247.201 197.255 247.936 195.916 248.196 196.007Z" fill="white"/>
</g>
<g opacity="0.3">
<path d="M252.788 199.394C253.061 199.439 253.068 200.759 252.573 202.28C252.079 203.801 251.305 204.88 251.058 204.743C250.811 204.607 251.142 203.411 251.604 201.968C252.066 200.525 252.508 199.348 252.788 199.394Z" fill="white"/>
</g>
<g opacity="0.3">
<path d="M253.705 188.857C253.985 188.89 254.056 190.157 253.868 191.633C253.679 193.108 253.302 194.311 253.022 194.279C252.742 194.246 252.671 192.978 252.86 191.503C253.048 190.027 253.425 188.818 253.705 188.857Z" fill="white"/>
</g>
<g opacity="0.3">
<path d="M242.947 223.392C243.181 223.535 242.817 224.575 242.03 225.654C241.243 226.733 240.365 227.396 240.15 227.207C239.935 227.019 240.456 226.089 241.21 225.056C241.965 224.022 242.706 223.249 242.947 223.392Z" fill="white"/>
</g>
<g opacity="0.3">
<path d="M251.461 182.24C251.734 182.279 251.708 183.937 251.396 185.939C251.084 187.941 250.609 189.52 250.336 189.481C250.063 189.442 250.082 187.785 250.394 185.783C250.707 183.781 251.181 182.195 251.461 182.24Z" fill="white"/>
</g>
<g opacity="0.3">
<path d="M260.743 219.271C260.958 219.446 260.203 220.714 259.065 222.086C257.926 223.457 256.814 224.439 256.6 224.257C256.385 224.075 257.139 222.82 258.278 221.442C259.416 220.064 260.528 219.089 260.743 219.271Z" fill="white"/>
</g>
<g opacity="0.3">
<path d="M267.429 217.25C267.67 217.367 266.883 219.375 265.146 221.351C263.41 223.327 261.543 224.393 261.393 224.172C261.244 223.951 262.753 222.573 264.385 220.688C266.018 218.803 267.169 217.1 267.429 217.25Z" fill="white"/>
</g>
<g opacity="0.3">
<path d="M268.321 210.912C268.542 211.081 267.82 212.446 266.701 213.967C265.582 215.488 264.489 216.567 264.262 216.418C264.034 216.268 264.763 214.884 265.881 213.363C267 211.842 268.093 210.75 268.321 210.912Z" fill="white"/>
</g>
<g opacity="0.3">
<path d="M274.044 205.809C274.292 205.946 274.109 206.739 273.635 207.59C273.16 208.442 272.587 209.02 272.334 208.89C272.08 208.76 272.269 207.954 272.744 207.103C273.218 206.251 273.797 205.673 274.044 205.809Z" fill="white"/>
</g>
<g opacity="0.3">
<path d="M215.531 222.645C215.355 222.853 213.742 221.728 212.382 219.759C211.023 217.789 210.529 215.891 210.782 215.8C211.036 215.709 211.927 217.334 213.215 219.18C214.503 221.026 215.726 222.43 215.531 222.645Z" fill="white"/>
</g>
<g opacity="0.3">
<path d="M211.114 211.978C211.043 212.095 210.73 212.062 210.327 211.796C209.804 211.44 209.401 210.935 209.169 210.346C208.919 209.765 208.847 209.123 208.961 208.5C209.065 208.026 209.267 207.785 209.397 207.811C209.677 207.889 209.644 208.89 210.106 209.956C210.568 211.022 211.264 211.731 211.114 211.978Z" fill="white"/>
</g>
<g opacity="0.3">
<path d="M216.597 217.1C216.415 217.295 215.069 216.268 214.126 214.461C213.183 212.654 213.091 210.97 213.358 210.931C213.625 210.892 214.152 212.335 215.03 213.986C215.908 215.637 216.773 216.911 216.597 217.1Z" fill="white"/>
</g>
<g opacity="0.3">
<path d="M223.681 228.651C223.531 228.878 221.977 228.111 220.572 226.545C219.957 225.881 219.444 225.129 219.05 224.315C218.955 224.111 218.938 223.88 219.004 223.665C219.039 223.572 219.098 223.49 219.176 223.428C219.254 223.366 219.348 223.327 219.446 223.314C219.506 223.303 219.568 223.308 219.625 223.329C219.682 223.349 219.732 223.385 219.772 223.431C219.817 223.503 219.772 223.555 219.772 223.568C219.772 223.581 219.615 223.6 219.57 223.691C219.524 223.782 219.537 223.808 219.537 223.802C219.537 223.795 219.596 223.899 219.68 223.997C220.071 224.439 220.676 225.16 221.326 225.882C222.633 227.325 223.843 228.41 223.681 228.651Z" fill="white"/>
</g>
<g opacity="0.2">
<path d="M230.192 197.554C230.471 197.554 230.64 199.413 230.575 201.688C230.51 203.963 230.231 205.803 229.925 205.79C229.619 205.777 229.476 203.937 229.541 201.662C229.606 199.387 229.905 197.548 230.192 197.554Z" fill="white"/>
</g>
<g opacity="0.2">
<path d="M236.065 187.765C236.345 187.765 236.436 189.644 236.273 191.919C236.111 194.194 235.753 196.02 235.473 196.001C235.194 195.981 235.096 194.122 235.259 191.847C235.421 189.572 235.785 187.746 236.065 187.765Z" fill="white"/>
</g>
<g opacity="0.2">
<path d="M235.623 208C235.343 208 235.181 206.654 235.259 205.023C235.337 203.391 235.636 202.078 235.909 202.098C236.182 202.117 236.351 203.443 236.267 205.075C236.182 206.706 235.902 208 235.623 208Z" fill="white"/>
</g>
<g opacity="0.2">
<path d="M232.345 184.145C232.624 184.203 232.605 185.445 232.507 186.998C232.41 188.552 232.273 189.793 231.987 189.813C231.701 189.832 231.395 188.545 231.492 186.933C231.59 185.321 232.071 184.093 232.345 184.145Z" fill="white"/>
</g>
<g opacity="0.2">
<path d="M235.239 175.981C235.519 176.026 235.597 177.001 235.629 178.178C235.662 179.354 235.629 180.33 235.35 180.382C235.07 180.434 234.647 179.478 234.615 178.204C234.582 176.93 234.966 175.935 235.239 175.981Z" fill="white"/>
</g>
<g opacity="0.2">
<path d="M231.31 216.944C231.044 217.003 230.608 216.034 230.66 214.767C230.712 213.499 231.226 212.563 231.486 212.648C231.746 212.732 231.714 213.681 231.675 214.806C231.636 215.93 231.59 216.886 231.31 216.944Z" fill="white"/>
</g>
<g opacity="0.2">
<path d="M200.603 221.994C200.499 222.248 198.411 221.598 196.193 220.109C193.975 218.621 192.557 216.963 192.746 216.775C192.934 216.586 194.612 217.847 196.752 219.264C198.892 220.681 200.72 221.734 200.603 221.994Z" fill="white"/>
</g>
<g opacity="0.2">
<path d="M190.209 213.811C190.176 213.941 189.962 214.025 189.63 213.986C189.209 213.904 188.822 213.698 188.518 213.395C188.215 213.091 188.008 212.704 187.926 212.283C187.88 211.952 187.971 211.737 188.101 211.705C188.381 211.653 188.752 212.179 189.24 212.673C189.728 213.167 190.261 213.531 190.209 213.811Z" fill="white"/>
</g>
<g opacity="0.2">
<path d="M199.231 217.139C199.074 217.366 197.357 216.456 195.477 214.994C193.598 213.531 192.303 212.095 192.485 211.887C192.668 211.679 194.255 212.758 196.102 214.194C197.949 215.631 199.393 216.905 199.231 217.139Z" fill="white"/>
</g>
<g opacity="0.2">
<path d="M205.663 221.325C205.527 221.572 204.811 221.435 204.07 221.019C203.328 220.603 202.84 220.077 202.977 219.83C203.114 219.583 203.823 219.719 204.564 220.135C205.306 220.551 205.8 221.084 205.663 221.325Z" fill="white"/>
</g>
<g opacity="0.2">
<path d="M213.905 229.645C213.826 229.905 212.057 229.645 210.106 228.637C208.155 227.63 206.854 226.408 207.029 226.187C207.205 225.966 208.694 226.798 210.561 227.734C212.428 228.67 213.996 229.365 213.905 229.645Z" fill="white"/>
</g>
<g opacity="0.2">
<path d="M201.93 191.646C201.819 191.731 201.403 191.412 200.902 190.749C200.263 189.876 199.779 188.9 199.471 187.863C199.154 186.826 199.02 185.742 199.074 184.659C199.126 183.833 199.302 183.359 199.432 183.359C199.731 183.359 199.757 185.309 200.447 187.577C201.136 189.846 202.164 191.471 201.93 191.646Z" fill="white"/>
</g>
<g opacity="0.2">
<path d="M198.06 176.28C198.346 176.28 198.541 176.995 198.71 177.821C198.879 178.646 199.009 179.374 198.756 179.504C198.502 179.634 197.93 179.017 197.715 178.042C197.5 177.067 197.78 176.261 198.06 176.28Z" fill="white"/>
</g>
<g opacity="0.2">
<path d="M198.769 165.893C199.048 165.847 199.504 167.342 199.79 169.221C200.076 171.099 200.089 172.659 199.79 172.705C199.491 172.75 199.055 171.255 198.769 169.377C198.483 167.498 198.496 165.938 198.769 165.893Z" fill="white"/>
</g>
<g opacity="0.2">
<path d="M194.482 162.123C194.756 162.052 195.282 163.157 195.66 164.6C196.037 166.043 196.128 167.258 195.855 167.33C195.582 167.401 195.061 166.296 194.677 164.853C194.294 163.41 194.242 162.195 194.482 162.123Z" fill="white"/>
</g>
<g opacity="0.2">
<path d="M195.022 154.251C195.308 154.251 195.497 155.07 195.822 155.98C196.147 156.89 196.473 157.651 196.258 157.839C196.043 158.028 195.243 157.43 194.86 156.312C194.476 155.194 194.749 154.225 195.022 154.251Z" fill="white"/>
</g>
<g opacity="0.2">
<path d="M236.761 164.45C237.015 164.58 236.722 165.666 236.488 166.992C236.254 168.318 236.137 169.429 235.837 169.461C235.538 169.494 235.187 168.292 235.473 166.81C235.759 165.328 236.54 164.333 236.761 164.45Z" fill="white"/>
</g>
<g opacity="0.2">
<path d="M235.532 157.839C235.811 157.917 235.857 158.548 236.033 159.237C236.208 159.926 236.423 160.537 236.215 160.719C236.111 160.803 235.889 160.758 235.649 160.543C235.343 160.255 235.132 159.881 235.044 159.471C234.944 159.064 234.964 158.638 235.102 158.242C235.226 157.95 235.402 157.8 235.532 157.839Z" fill="white"/>
</g>
<g opacity="0.2">
<path d="M253.438 174.311C253.718 174.311 253.985 174.753 254.037 175.344C254.089 175.936 253.9 176.436 253.621 176.462C253.341 176.488 253.074 176.02 253.022 175.429C252.97 174.837 253.159 174.337 253.438 174.311Z" fill="white"/>
</g>
<g opacity="0.2">
<path d="M268.158 184.893C268.399 185.049 268.008 186.03 267.566 187.213C267.124 188.396 266.753 189.384 266.467 189.345C266.181 189.306 266.116 188.156 266.616 186.856C267.117 185.556 267.937 184.737 268.158 184.893Z" fill="white"/>
</g>
<g opacity="0.2">
<path d="M262.584 195.266C262.85 195.351 262.896 195.981 262.896 196.696C262.896 197.411 262.85 198.048 262.584 198.133C262.317 198.217 261.881 197.593 261.881 196.696C261.881 195.799 262.323 195.175 262.584 195.266Z" fill="white"/>
</g>
<g opacity="0.2">
<path d="M272.978 202.072C273.231 202.195 273.153 202.858 272.802 203.554C272.451 204.249 271.976 204.704 271.722 204.581C271.469 204.457 271.547 203.794 271.898 203.099C272.249 202.403 272.724 201.948 272.978 202.072Z" fill="white"/>
</g>
<g opacity="0.2">
<path d="M275.827 198.484C276.1 198.555 276.282 198.77 276.23 198.965C276.178 199.16 275.924 199.27 275.651 199.199C275.378 199.127 275.196 198.919 275.248 198.718C275.3 198.516 275.553 198.419 275.827 198.484Z" fill="white"/>
</g>
<g opacity="0.2">
<path d="M187.386 208.65C187.217 208.864 186.306 208.422 185.578 207.46C184.849 206.498 184.654 205.51 184.927 205.406C185.2 205.302 185.753 205.998 186.404 206.849C187.054 207.701 187.568 208.442 187.386 208.65Z" fill="white"/>
</g>
<g opacity="0.2">
<path d="M181.857 201.611C181.79 201.627 181.718 201.621 181.655 201.593C181.591 201.565 181.539 201.516 181.506 201.455C181.47 201.374 181.46 201.285 181.478 201.198C181.495 201.112 181.539 201.034 181.604 200.974C181.665 200.911 181.744 200.869 181.83 200.853C181.916 200.836 182.005 200.847 182.085 200.883C182.145 200.916 182.193 200.969 182.22 201.033C182.247 201.096 182.252 201.167 182.234 201.234C182.163 201.572 182.234 201.578 182.234 201.604C182.234 201.63 182.195 201.539 181.857 201.611Z" fill="white"/>
</g>
<path opacity="0.5" d="M176.673 195.65C176.732 195.845 184.537 192.205 184.537 192.205C183.858 190.791 183.655 189.194 183.958 187.655L175.268 189.8L175.606 191.646L176.673 195.65Z" fill="black"/>
<path d="M144.496 193.953C145.543 193.303 146.649 192.764 147.748 192.211C150.12 191.028 152.505 189.856 154.903 188.695C156.275 188.045 157.641 187.356 159.033 186.745C161.017 185.88 163.033 185.068 165.03 184.236C163.06 183.892 161.066 183.705 159.066 183.677C157.404 183.551 155.735 183.568 154.077 183.729C152.071 184.077 150.096 184.586 148.171 185.25C146.128 185.9 144.171 186.823 142.141 187.512C139.157 188.423 136.303 189.712 133.646 191.347C132.085 192.367 129.958 192.53 128.443 193.583C126.609 194.917 124.673 196.106 122.654 197.138C119.252 198.796 116.241 201.253 113.06 203.365C112.93 203.45 112.78 203.502 112.344 203.71C114.452 197.106 116.468 190.807 118.485 184.502L118.101 184.307C113.817 187.406 109.855 190.927 106.276 194.818L105.918 194.623C107.017 191.47 108.136 188.331 109.203 185.172C110.27 182.013 111.265 178.906 112.299 175.773C113.333 172.64 114.406 169.422 115.467 166.244C116.527 163.065 117.561 160.043 118.608 156.942L118.146 156.773C116.65 158.301 114.614 159.373 113.977 161.648C113.886 161.986 113.509 162.24 113.275 162.545C112.845 163.01 112.473 163.525 112.169 164.079C111.564 165.509 111.031 166.913 109.255 167.329C108.975 167.394 108.819 168.025 108.604 168.395C107.954 169.611 107.447 171.034 106.477 171.951C105.957 172.382 105.543 172.927 105.268 173.543C104.754 174.577 104.176 175.578 103.537 176.54L102.802 176.267C103.082 174.271 103.258 172.263 103.661 170.293C104.357 166.842 104.916 163.325 106.061 160.017C106.881 157.631 106.874 155.174 107.525 152.808C107.586 152.251 107.586 151.689 107.525 151.131C107.197 151.435 106.892 151.763 106.614 152.113C105.372 154.063 104.24 156.136 102.907 158.041C101.127 160.486 99.6339 163.127 98.4575 165.912C98.1778 166.621 97.5208 167.18 97.2021 167.862C95.8492 170.872 94.5548 173.914 93.2344 176.962C92.7699 177.876 92.3594 178.816 92.0051 179.777C91.3872 181.805 90.8928 183.878 90.353 185.926L90.1253 185.809L88.1154 172.204L87.465 172.126C86.3853 174.668 85.312 177.216 84.1543 179.926C83.829 178.379 83.5038 176.91 83.2241 175.448C83.0615 174.681 82.9249 173.901 82.7428 173.14C82.4436 171.905 81.7086 170.605 81.9037 169.461C82.0312 168.308 81.8564 167.141 81.3964 166.075C80.9801 164.775 80.2841 163.319 80.5443 162.11C80.8045 160.901 80.3362 160.004 80.05 158.944C79.4703 157.032 79.1594 155.047 79.1263 153.049C79.1965 152.232 79.0222 151.413 78.6255 150.696C77.9718 149.391 77.4384 148.029 77.0319 146.627C76.8173 146.022 76.8758 145.327 76.6091 144.742C75.744 142.896 74.7749 141.095 73.8512 139.275C73.6236 138.814 73.4154 138.339 73.2008 137.871L72.6739 137.826C72.3162 138.996 71.8674 140.153 71.6202 141.349C71.3731 142.545 71.7698 144.02 71.1519 144.794C69.6949 146.62 70.3258 148.525 70.2933 150.429C70.2933 151.216 70.2933 152.002 70.2153 152.782C70.0722 154.167 69.877 155.545 69.7014 156.923C69.5258 158.301 69.3437 159.62 69.1746 160.966C69.0779 161.344 69.0646 161.739 69.1355 162.123C70.5795 166.127 68.9339 170.072 68.9339 174.044C68.8551 175.096 68.6897 176.139 68.4396 177.164L68.0818 177.32C67.4899 176.345 67.1257 174.96 66.2541 174.479C65.3487 173.987 64.5497 173.321 63.9033 172.519C63.2569 171.717 62.7759 170.795 62.488 169.806C62.0522 168.506 60.8424 167.492 59.9968 166.335C58.3837 164.144 56.7446 161.954 55.1705 159.75C54.9494 159.438 54.8908 159.009 54.6827 158.691C53.8371 157.391 53.4469 155.772 51.5346 155.278C50.689 155.064 50.0776 153.939 49.3751 153.211C49.1865 153.003 49.1344 152.639 48.9133 152.496C47.5734 151.625 46.2139 150.78 44.835 149.974C44.2043 149.678 43.552 149.431 42.8837 149.233C42.9874 149.704 43.1243 150.167 43.2934 150.618C44.783 153.4 46.331 156.143 47.7815 158.944C50.8256 164.794 53.9087 170.644 56.7966 176.553C59.0212 181.103 60.7383 185.919 63.1645 190.359C64.3483 192.53 63.7434 194.421 63.958 196.748C60.4391 193.641 57.6422 190.281 54.0778 187.765C53.7005 187.499 53.5119 186.979 53.2127 186.595C52.94 186.215 52.6307 185.862 52.2891 185.542C51.2093 184.626 50.045 183.794 49.0369 182.832C48.3864 182.24 48.0222 181.402 47.4173 180.784C46.1164 179.484 44.7179 178.23 43.4105 176.917C42.9747 176.475 42.7601 175.792 42.3373 175.37C40.3014 173.42 38.155 171.626 36.1581 169.656C34.9353 168.441 34.0767 166.881 32.366 166.133C31.7156 165.854 31.3383 165.087 30.7724 164.619C29.2179 163.319 27.6308 162.019 26.0632 160.764L25.738 161.076C25.9982 161.726 26.2258 162.337 26.5185 162.942C27.169 164.359 27.93 165.756 28.613 167.173C30.1935 170.423 31.7286 173.738 33.3417 176.995C34.3499 179.042 35.5012 181.018 36.5158 183.059C37.0882 184.216 37.511 185.458 38.1159 186.959C36.2373 186.361 34.593 185.191 33.4132 183.612C33.0416 183.153 32.6031 182.752 32.1124 182.422C30.896 181.532 29.6342 180.713 28.4373 179.822C27.969 179.471 27.6893 178.86 27.221 178.522C25.9201 177.573 24.3005 176.904 23.2663 175.721C22.6724 175.062 21.9362 174.546 21.1134 174.213C20.0987 173.738 18.9409 173.231 18.2839 172.399C16.37 170.116 14.0446 168.211 11.4283 166.783C11.1161 166.595 10.329 166.562 10.2705 166.699C10.068 167.174 9.98964 167.693 10.0428 168.207C10.0428 168.506 10.4006 168.779 10.6152 169.045C12.8918 171.892 15.0968 174.804 17.4709 177.567C22.9086 183.876 28.4027 190.164 33.9531 196.43C38.6493 201.727 44.2561 206.011 49.8369 210.314C50.7866 211.042 51.7232 211.789 52.6663 212.53L52.5102 213.07C51.2093 212.914 49.9475 212.842 48.6986 212.576C47.4498 212.309 46.0969 211.835 44.7635 211.445C43.5146 212.797 38.0574 212.745 35.6573 211.347C33.5108 212.446 27.969 211.25 26.4665 209.43C25.7575 209.8 25.0095 210.548 24.3786 210.457C21.8614 210.099 19.3832 209.482 16.892 208.955C16.6667 208.865 16.4259 208.818 16.183 208.819C13.5974 209.419 10.8843 209.116 8.49478 207.961C8.31406 207.904 8.1239 207.885 7.9354 207.902C5.98407 207.87 4.03275 207.831 2.08142 207.818C1.49602 207.818 0.917126 207.889 0.331728 207.935L0.104073 208.513C2.02288 210.002 3.88314 211.575 5.88 212.953C10.6738 216.268 16.157 218.153 21.5296 220.213C28.4959 222.924 35.6052 225.056 43.0983 225.673C46.0188 225.914 48.9523 226.076 52.1265 226.291L80.9281 224.991H107.473C109.287 224.874 111.083 225.056 112.832 224.841C122.439 223.658 131.923 221.955 141.016 218.419C145.705 216.615 150.221 214.387 154.506 211.763C155.331 211.182 156.118 210.548 156.861 209.865L156.581 209.527C154.506 209.826 152.438 210.177 150.35 210.398C149.478 210.483 148.555 210.047 147.689 210.145C145.79 210.366 143.917 210.795 142.031 211.1C141.697 211.105 141.363 211.075 141.035 211.009C140.402 210.948 139.766 210.922 139.13 210.931C136.853 211.029 134.577 212.426 132.28 211.074C132.085 210.957 131.721 211.074 131.435 211.159C129.425 211.581 127.422 212.043 125.399 212.413C124.919 212.409 124.443 212.341 123.981 212.212C123.318 212.09 122.643 212.05 121.971 212.095C120.02 212.42 118.068 212.998 116.039 212.095C120.592 209.105 125.074 206.134 129.588 203.255C134.518 200.102 139.507 197.034 144.496 193.953Z" fill="#455A64"/>
<path d="M83.5103 222.085C83.9601 222.084 84.4096 222.108 84.8567 222.157C86.0736 222.237 87.2941 222.248 88.5122 222.189C92.5402 221.953 96.5114 221.125 100.298 219.732C104.081 218.328 107.754 216.642 111.284 214.688L114.536 212.933L115.415 212.465C115.517 212.407 115.623 212.357 115.733 212.316C115.733 212.316 115.642 212.4 115.454 212.524L114.601 213.05C113.86 213.499 112.78 214.142 111.427 214.903C107.913 216.923 104.236 218.645 100.435 220.051C96.6234 221.462 92.6128 222.263 88.5512 222.423C87.3225 222.465 86.0924 222.422 84.8697 222.293C84.4339 222.254 84.1022 222.189 83.8746 222.157C83.7505 222.149 83.628 222.125 83.5103 222.085Z" fill="#263238"/>
<path d="M154.688 210.658C154.639 210.704 154.584 210.743 154.526 210.775C154.415 210.84 154.259 210.951 154.038 211.074C151.068 212.77 147.701 213.645 144.281 213.609L144.385 213.557C143.458 214.753 142.148 215.596 140.675 215.945C139.202 216.293 137.653 216.128 136.287 215.475L136.489 215.423C135.606 216.663 134.268 217.504 132.767 217.763C131.266 218.023 129.724 217.679 128.475 216.807H128.69C128.136 217.276 127.524 217.672 126.869 217.984C125.662 218.57 124.337 218.874 122.995 218.874C121.654 218.874 120.329 218.57 119.122 217.984L119.324 217.938C118.003 219.46 116.131 220.395 114.12 220.538C112.356 220.707 110.588 220.247 109.131 219.238H109.274C107.971 220.248 106.468 220.971 104.864 221.357C103.65 221.655 102.397 221.761 101.15 221.669C100.362 221.612 99.5814 221.472 98.8217 221.253C98.5616 221.175 98.3664 221.097 98.2363 221.052L98.0412 220.967C98.1124 220.973 98.1825 220.988 98.2493 221.013L98.8413 221.175C99.6007 221.362 100.376 221.477 101.157 221.52C102.387 221.583 103.62 221.458 104.812 221.149C106.377 220.75 107.842 220.028 109.112 219.03L109.19 218.965L109.268 219.024C110.675 219.986 112.378 220.419 114.075 220.246C115.999 220.091 117.784 219.185 119.044 217.724L119.129 217.62L119.246 217.685C120.408 218.247 121.682 218.538 122.973 218.538C124.264 218.538 125.538 218.247 126.7 217.685C127.325 217.384 127.911 217.006 128.443 216.56L128.547 216.469L128.651 216.554C129.248 216.981 129.928 217.28 130.647 217.429C131.366 217.579 132.108 217.578 132.827 217.425C133.504 217.304 134.15 217.051 134.728 216.68C135.307 216.308 135.805 215.826 136.196 215.26L136.274 215.143L136.404 215.208C137.708 215.83 139.184 215.991 140.592 215.665C141.999 215.339 143.254 214.546 144.151 213.414L144.19 213.362H144.255C146.915 213.392 149.555 212.895 152.021 211.9C152.9 211.549 153.556 211.25 154.005 210.996L154.506 210.73L154.688 210.658Z" fill="#263238"/>
<path d="M165.024 184.242C165.024 184.242 164.887 184.301 164.607 184.385C164.328 184.47 163.912 184.58 163.352 184.697C162.67 184.845 161.979 184.947 161.284 185.003C160.334 185.11 159.371 185.026 158.454 184.756H158.539C157.603 185.515 156.499 186.039 155.319 186.283C153.911 186.579 152.448 186.473 151.098 185.978L151.241 185.939C150.43 186.979 149.322 187.747 148.064 188.143C146.806 188.539 145.457 188.543 144.197 188.155L144.353 188.11C143.468 189.194 142.364 190.079 141.113 190.706C139.862 191.334 138.492 191.689 137.094 191.75L137.243 191.639C136.77 193.096 135.849 194.366 134.611 195.269C133.373 196.171 131.881 196.659 130.349 196.664L130.511 196.56C130.028 197.728 129.28 198.768 128.328 199.601C127.376 200.433 126.244 201.034 125.022 201.357C124.32 201.546 123.595 201.635 122.869 201.623L123.044 201.48C122.638 203.305 121.537 204.901 119.975 205.929C118.413 206.958 116.511 207.339 114.673 206.992L114.875 206.856C114.78 207.357 114.583 207.833 114.296 208.255C114.009 208.677 113.639 209.035 113.207 209.307C112.776 209.58 112.293 209.761 111.789 209.839C111.285 209.917 110.77 209.891 110.276 209.761L110.478 209.638C110.315 210.46 109.983 211.24 109.502 211.927C109.022 212.614 108.404 213.193 107.687 213.629C106.381 214.481 104.793 214.787 103.264 214.48L103.42 214.383C103.181 215.154 102.775 215.863 102.229 216.459C101.684 217.054 101.013 217.522 100.266 217.828C98.9849 218.402 97.53 218.451 96.2134 217.964H96.3305C94.7438 219.801 92.5564 221.015 90.1578 221.39C89.532 221.488 88.8981 221.525 88.265 221.5L87.7772 221.461H87.6146H87.8097H88.2976C88.9276 221.466 89.5567 221.414 90.1773 221.305C91.1697 221.124 92.1311 220.802 93.0328 220.35C94.2498 219.743 95.33 218.893 96.2069 217.854L96.2525 217.795L96.324 217.828C97.5968 218.285 98.9983 218.224 100.227 217.659C100.935 217.363 101.57 216.915 102.086 216.347C102.602 215.778 102.986 215.103 103.212 214.37L103.245 214.246H103.375C104.895 214.509 106.457 214.172 107.734 213.308C109.011 212.444 109.903 211.119 110.224 209.612L110.256 209.436L110.426 209.488C110.875 209.603 111.343 209.625 111.8 209.552C112.258 209.479 112.696 209.313 113.087 209.065C113.479 208.816 113.815 208.49 114.075 208.107C114.336 207.724 114.515 207.291 114.601 206.836V206.661L114.771 206.7C116.52 207.027 118.328 206.662 119.814 205.683C121.299 204.703 122.346 203.184 122.732 201.448V201.305H122.882C123.573 201.315 124.262 201.229 124.93 201.051C126.103 200.742 127.188 200.166 128.102 199.369C129.016 198.572 129.733 197.575 130.199 196.456L130.238 196.352H130.355C131.816 196.346 133.238 195.88 134.419 195.022C135.601 194.163 136.482 192.955 136.938 191.568L136.97 191.457H137.087C138.443 191.4 139.772 191.055 140.985 190.447C142.198 189.839 143.268 188.98 144.125 187.928L144.19 187.85H144.288C145.494 188.225 146.785 188.226 147.992 187.852C149.199 187.479 150.263 186.748 151.046 185.757L151.098 185.685L151.182 185.718C152.385 186.167 153.683 186.3 154.951 186.104C156.22 185.908 157.417 185.39 158.428 184.6L158.467 184.567H158.513C159.408 184.838 160.346 184.933 161.277 184.847C161.969 184.799 162.657 184.712 163.339 184.587C163.892 184.483 164.315 184.385 164.594 184.314L164.913 184.236L165.024 184.242Z" fill="#263238"/>
<path d="M112.435 203.846C112.368 204.069 112.262 204.278 112.123 204.464C111.78 204.996 111.364 205.478 110.887 205.894C110.175 206.512 109.358 206.998 108.474 207.33C107.387 207.738 106.222 207.894 105.066 207.785C104.793 207.757 104.521 207.714 104.253 207.655L104.442 207.564C104.005 208.426 103.376 209.175 102.604 209.754C101.831 210.333 100.935 210.727 99.986 210.905C99.4252 211.018 98.8501 211.043 98.2819 210.977C98.0757 210.964 97.8732 210.916 97.6834 210.834C98.4391 210.879 99.1973 210.828 99.9405 210.684C100.741 210.498 101.498 210.161 102.172 209.69C103.004 209.112 103.676 208.331 104.123 207.421L104.175 207.311H104.311C104.559 207.311 104.819 207.415 105.085 207.428C106.187 207.533 107.297 207.393 108.338 207.018C109.191 206.718 109.989 206.278 110.699 205.718C111.348 205.164 111.931 204.535 112.435 203.846Z" fill="#263238"/>
<path d="M106.269 193.55C106.249 193.66 106.212 193.765 106.159 193.862L105.768 194.74C105.398 195.539 104.89 196.618 104.279 197.925C103.011 200.609 101.248 204.314 99.251 208.39C98.3209 210.316 97.2513 212.171 96.0508 213.941C95.055 215.376 93.8887 216.686 92.5775 217.841C91.6921 218.621 90.7185 219.295 89.6765 219.849C89.3942 220.003 89.1032 220.14 88.8049 220.259C88.7038 220.309 88.5967 220.346 88.4862 220.369C88.4862 220.369 88.896 220.155 89.6115 219.719C90.6157 219.125 91.5571 218.43 92.4214 217.646C93.6893 216.476 94.8217 215.168 95.7972 213.746C96.9726 211.98 98.0266 210.136 98.9518 208.227L104.064 197.827L105.651 194.688L106.094 193.843C106.139 193.738 106.198 193.64 106.269 193.55Z" fill="#263238"/>
<path d="M118.485 157.235C118.441 157.369 118.382 157.498 118.309 157.618L117.743 158.697L115.571 162.74C115.005 164.596 113.964 166.272 112.553 167.602L112.592 167.453C112.979 168.455 112.979 169.565 112.592 170.566C112.395 171.1 112.097 171.59 111.713 172.009C111.301 172.421 110.835 172.775 110.328 173.062C109.866 173.374 109.463 173.829 109.613 174.362C109.762 174.895 110.217 175.409 110.165 176.13C110.136 176.466 110.037 176.792 109.875 177.088C109.713 177.383 109.49 177.642 109.222 177.846C108.688 178.244 108.09 178.547 107.453 178.743L107.557 178.535C107.876 179.613 107.818 180.767 107.392 181.807C106.966 182.846 106.199 183.71 105.216 184.255L105.281 184.021C105.503 184.41 105.669 184.828 105.775 185.263C106.067 186.476 105.947 187.751 105.432 188.887C104.917 190.023 104.037 190.955 102.933 191.535L103.011 191.321C103.248 191.919 103.364 192.559 103.35 193.203C103.337 193.847 103.195 194.481 102.932 195.069C102.67 195.658 102.293 196.187 101.822 196.627C101.352 197.068 100.799 197.409 100.194 197.632L100.298 197.457C100.582 198.943 100.338 200.48 99.6088 201.805C98.9857 202.992 98.0081 203.956 96.8119 204.561L96.8769 204.431C97.0982 205.909 96.9939 207.418 96.5712 208.851C96.2551 209.93 95.7675 210.95 95.1272 211.874C94.7241 212.455 94.2596 212.991 93.7418 213.473C93.5596 213.635 93.41 213.746 93.319 213.824C93.2279 213.902 93.1694 213.941 93.1629 213.934C93.2025 213.886 93.246 213.84 93.293 213.798L93.6897 213.421C94.1744 212.922 94.61 212.378 94.9906 211.796C95.5971 210.873 96.0578 209.862 96.3565 208.799C96.7505 207.391 96.8348 205.914 96.6037 204.47V204.379L96.6883 204.34C97.892 203.7 98.8605 202.694 99.4535 201.467C100.046 200.24 100.233 198.856 99.986 197.515V197.385L100.123 197.34C100.673 197.145 101.178 196.84 101.606 196.443C102.035 196.046 102.377 195.566 102.614 195.032C102.886 194.479 103.036 193.873 103.055 193.257C103.074 192.64 102.961 192.027 102.724 191.457L102.659 191.308L102.809 191.236C103.84 190.686 104.66 189.809 105.142 188.744C105.623 187.679 105.738 186.485 105.469 185.347C105.369 184.942 105.214 184.553 105.007 184.19L104.929 184.034L105.079 183.95C105.989 183.441 106.7 182.639 107.097 181.675C107.494 180.711 107.553 179.641 107.264 178.639L107.212 178.483L107.362 178.431C107.962 178.25 108.527 177.969 109.034 177.599C109.267 177.423 109.461 177.2 109.605 176.945C109.748 176.69 109.837 176.408 109.866 176.117C109.925 175.545 109.489 175.077 109.326 174.427C109.288 174.263 109.284 174.092 109.314 173.925C109.344 173.759 109.408 173.6 109.502 173.459C109.676 173.203 109.897 172.983 110.152 172.809C110.64 172.534 111.091 172.198 111.492 171.808C111.854 171.417 112.136 170.96 112.325 170.462C112.686 169.523 112.686 168.483 112.325 167.544L112.292 167.459L112.357 167.394C113.745 166.103 114.779 164.478 115.362 162.675L117.613 158.671L118.224 157.618C118.301 157.484 118.388 157.356 118.485 157.235Z" fill="#263238"/>
<path d="M62.0782 176.423C62.3742 177.074 62.8697 177.613 63.4929 177.964C64.1162 178.314 64.8349 178.458 65.5451 178.373C65.3489 178.857 65.2829 179.384 65.3537 179.901C65.4245 180.418 65.6296 180.908 65.9487 181.322C66.2677 181.735 66.6895 182.058 67.1722 182.258C67.6549 182.458 68.1815 182.528 68.6997 182.461C68.3322 183.472 68.3537 184.583 68.7599 185.579C69.1662 186.575 69.9283 187.384 70.8982 187.85C70.8053 188.363 70.8163 188.889 70.9304 189.398C71.0446 189.907 71.2596 190.387 71.5628 190.811C71.866 191.236 72.2512 191.595 72.6956 191.867C73.1401 192.14 73.6348 192.321 74.1504 192.4C73.7617 193.123 73.5245 193.917 73.4533 194.734C73.3822 195.551 73.4787 196.375 73.7368 197.153C73.995 197.932 74.4094 198.65 74.9547 199.263C75.5 199.877 76.1648 200.372 76.9083 200.72C76.4122 201.96 76.4194 203.344 76.9283 204.578C77.4372 205.812 78.4078 206.8 79.6337 207.33C79.3499 208.769 79.5651 210.261 80.2438 211.561C80.9225 212.861 82.0242 213.89 83.3672 214.48L85.6438 218.881C85.894 219.318 86.0802 219.789 86.1966 220.278C86.2608 220.899 86.1446 221.526 85.862 222.082C85.5794 222.639 85.1424 223.103 84.6031 223.418C83.5062 224.029 82.2495 224.292 80.9996 224.172C78.0781 223.96 75.2931 222.853 73.0252 221C70.7615 219.138 68.891 216.844 67.5224 214.253C65.8875 211.27 64.7599 208.037 64.1857 204.685C62.7417 196.157 64.9142 186.992 61.6229 178.99L62.0782 176.423Z" fill="#455A64"/>
<path d="M62.0782 176.423L61.6685 179.023L62.1953 180.427C62.3644 180.96 62.54 181.551 62.7157 182.208C63.0821 183.739 63.3386 185.294 63.4832 186.862C63.6458 188.643 63.7043 190.632 63.7239 192.803C63.7434 194.974 63.7239 197.353 63.8279 199.829C63.9265 202.479 64.317 205.11 64.9922 207.675C65.774 210.49 66.9569 213.178 68.5046 215.657C70.1267 218.353 72.3844 220.611 75.0806 222.235C76.4876 223.055 78.0293 223.618 79.6337 223.899C81.2338 224.146 83.016 224.211 84.4535 223.372C85.1822 222.953 85.7274 222.276 85.982 221.474C86.1031 221.085 86.121 220.671 86.034 220.272C85.9307 219.868 85.7755 219.479 85.5722 219.115L83.2566 214.558L83.3412 214.636C81.9582 214.031 80.8241 212.971 80.1272 211.633C79.4302 210.294 79.2125 208.758 79.5101 207.278L79.6077 207.46C78.3447 206.912 77.3456 205.892 76.8222 204.619C76.2988 203.346 76.2924 201.92 76.8043 200.642L76.8823 200.843C76.0828 200.485 75.3725 199.954 74.8024 199.288C74.2323 198.623 73.8164 197.84 73.5846 196.995C73.3353 196.224 73.2494 195.408 73.3323 194.602C73.4151 193.795 73.665 193.014 74.0659 192.309L74.17 192.51C73.6385 192.429 73.1285 192.243 72.6697 191.963C72.211 191.683 71.8126 191.314 71.4978 190.878C71.183 190.443 70.9581 189.949 70.8362 189.426C70.7143 188.903 70.6978 188.36 70.7877 187.83L70.8592 187.967C70.3315 187.719 69.8587 187.369 69.4688 186.936C69.0789 186.502 68.7798 185.996 68.5892 185.445C68.2243 184.475 68.2243 183.406 68.5892 182.435L68.6932 182.565C68.159 182.638 67.6152 182.568 67.1164 182.364C66.6176 182.16 66.1815 181.828 65.8518 181.401C65.5222 180.975 65.3107 180.47 65.2385 179.936C65.1664 179.402 65.2363 178.858 65.441 178.36L65.5061 178.444C64.8808 178.518 64.2476 178.414 63.6783 178.145C63.2721 177.948 62.9061 177.677 62.5986 177.346C62.4185 177.149 62.2634 176.931 62.1368 176.696L62.0327 176.442C62.1941 176.762 62.4 177.058 62.6441 177.32C62.9515 177.636 63.3155 177.892 63.7173 178.074C64.2697 178.329 64.8835 178.422 65.4866 178.34H65.5971L65.5516 178.438C65.3926 178.86 65.3294 179.312 65.3665 179.762C65.4037 180.212 65.5402 180.647 65.7662 181.038C66.0636 181.519 66.4921 181.904 67.0015 182.15C67.5109 182.395 68.0798 182.49 68.6412 182.422H68.7973L68.7388 182.572C68.3907 183.494 68.3907 184.51 68.7388 185.432C68.9204 185.953 69.2052 186.432 69.5762 186.841C69.9472 187.25 70.3968 187.58 70.8982 187.811L70.9893 187.85V187.947C70.9007 188.423 70.9092 188.912 71.0143 189.385C71.1194 189.857 71.3188 190.303 71.6007 190.697C71.8875 191.133 72.2647 191.503 72.7069 191.781C73.149 192.059 73.6457 192.239 74.1635 192.309H74.3716L74.261 192.484C73.8831 193.159 73.6493 193.905 73.5743 194.675C73.4993 195.445 73.5847 196.221 73.8252 196.956C74.0508 197.757 74.4489 198.498 74.9917 199.128C75.5344 199.758 76.2086 200.261 76.9669 200.603L77.11 200.661L77.0449 200.804C76.5717 202.006 76.5831 203.343 77.0769 204.536C77.5706 205.729 78.5082 206.684 79.6922 207.2L79.8158 207.252V207.389C79.5394 208.792 79.7496 210.247 80.4117 211.515C81.0739 212.783 82.1484 213.788 83.4583 214.363H83.5168V214.415L85.8519 218.933C86.0672 219.322 86.2312 219.737 86.3397 220.168C86.4343 220.621 86.4142 221.09 86.2812 221.533C86.0016 222.417 85.4035 223.165 84.6031 223.632C83.8344 224.06 82.9775 224.305 82.0989 224.347C81.246 224.396 80.3905 224.345 79.5491 224.198C77.9013 223.913 76.3176 223.336 74.8724 222.495C72.1465 220.839 69.8685 218.54 68.2379 215.8C66.6739 213.295 65.4841 210.575 64.706 207.727C64.028 205.142 63.6439 202.488 63.5612 199.816C63.4572 197.301 63.4962 194.948 63.4897 192.777C63.4832 190.606 63.4377 188.63 63.2946 186.855C63.1615 185.294 62.9224 183.743 62.5791 182.214C62.41 181.564 62.2408 180.966 62.0782 180.44C61.9156 179.913 61.727 179.445 61.5774 179.036C61.8961 177.359 62.0197 176.715 62.0782 176.423Z" fill="#263238"/>
<path d="M78.7036 223.6C78.7036 223.6 78.6125 223.658 78.4304 223.73C78.1638 223.84 77.89 223.931 77.6108 224.003C76.5811 224.265 75.5159 224.359 74.4562 224.282C72.89 224.164 71.3461 223.84 69.864 223.32C68.0566 222.685 66.2887 221.943 64.5694 221.097C61.44 219.579 58.459 217.773 55.6649 215.702C54.5917 214.909 53.7656 214.214 53.1932 213.752C52.8916 213.51 52.6089 213.245 52.3476 212.959C52.675 213.165 52.986 213.395 53.2778 213.648C53.8762 214.097 54.7217 214.753 55.808 215.52C58.6262 217.526 61.6069 219.294 64.719 220.805C66.4242 221.644 68.1744 222.388 69.9616 223.034C71.4172 223.564 72.9339 223.906 74.4757 224.055C75.901 224.163 77.334 224.009 78.7036 223.6Z" fill="#263238"/>
<path d="M64.8426 205.517C64.6602 205.513 64.4789 205.487 64.3028 205.439C63.7936 205.323 63.3017 205.142 62.8393 204.899C62.1059 204.525 61.4451 204.023 60.8879 203.417C60.1556 202.622 59.6228 201.664 59.3334 200.622L59.548 200.694C59.0647 201.044 58.4985 201.262 57.9053 201.327C57.312 201.392 56.712 201.302 56.1642 201.065C55.6163 200.829 55.1395 200.454 54.7806 199.977C54.4216 199.501 54.1929 198.939 54.1168 198.347L54.325 198.49C53.6554 198.66 52.9561 198.675 52.2799 198.534C51.6038 198.393 50.9685 198.1 50.4223 197.678C49.8404 197.21 49.3836 196.606 49.093 195.918C48.8024 195.231 48.687 194.482 48.7572 193.739L48.9588 193.914C48.3118 194.066 47.6402 194.081 46.9871 193.958C46.3341 193.834 45.714 193.576 45.1667 193.199C44.1708 192.571 43.4503 191.588 43.1504 190.45L43.2935 190.547C42.304 190.661 41.3026 190.492 40.4055 190.06C39.73 189.754 39.1253 189.311 38.6298 188.76C38.3136 188.408 38.0507 188.012 37.8493 187.583C37.7749 187.435 37.7202 187.278 37.6866 187.115C37.9634 187.675 38.3158 188.193 38.7339 188.656C39.2344 189.181 39.8333 189.603 40.4966 189.897C41.3616 190.289 42.3187 190.433 43.2609 190.313H43.378V190.43C43.7149 191.551 44.4629 192.504 45.4725 193.097C46.482 193.69 47.6785 193.88 48.8222 193.628L49.0564 193.57V193.804C48.9959 194.491 49.1055 195.182 49.3755 195.817C49.6454 196.452 50.0675 197.011 50.6044 197.444C51.1142 197.838 51.707 198.112 52.338 198.243C52.9691 198.375 53.6218 198.362 54.2469 198.204L54.429 198.152V198.341C54.5067 198.908 54.7354 199.444 55.0913 199.892C55.4472 200.34 55.9171 200.684 56.4519 200.889C56.9337 201.058 57.4485 201.112 57.9547 201.045C58.461 200.978 58.9444 200.794 59.3659 200.505L59.5285 200.388L59.5805 200.583C59.8433 201.592 60.3428 202.523 61.0375 203.3C61.5623 203.902 62.1873 204.407 62.8848 204.795C63.5096 205.106 64.166 205.347 64.8426 205.517Z" fill="#263238"/>
<g opacity="0.3">
<path d="M54.2209 219.7C52.5918 220.89 50.6101 221.499 48.5933 221.43C46.5764 221.36 44.6414 220.616 43.0983 219.316C40.6527 220.974 37.3614 220.98 34.5905 219.966C33.6084 219.602 32.6392 219.128 31.657 218.835C29.7057 218.276 27.6308 218.445 25.6339 218.114C23.6371 217.782 21.5231 216.729 20.9312 214.799C18.4921 215.767 15.7277 214.857 13.295 213.947L0.650444 209.241C2.25053 210.502 3.83111 211.796 5.50274 212.953C10.2965 216.268 15.7862 218.153 21.1524 220.213C28.1186 222.924 35.2345 225.056 42.7276 225.673C45.6481 225.914 48.9653 226.076 52.1395 226.291L75.2822 224.991L63.262 219.947C61.8261 220.559 60.2748 220.853 58.7145 220.81C57.1541 220.768 55.6213 220.389 54.2209 219.7Z" fill="black"/>
</g>
<path d="M63.2295 219.927C62.4838 220.3 61.6853 220.557 60.8619 220.688C58.5908 221.103 56.2465 220.784 54.1688 219.778H54.2924C52.7912 220.908 50.9682 221.53 49.0889 221.552C46.8703 221.613 44.7071 220.854 43.0138 219.42H43.2089C41.5192 220.506 39.5077 220.979 37.511 220.759C36.4676 220.665 35.4416 220.431 34.4604 220.064C33.4653 219.693 32.5091 219.219 31.5009 218.946C29.452 218.4 27.3186 218.601 25.3673 218.205C24.3653 218.031 23.4093 217.655 22.5573 217.1C21.7206 216.57 21.0913 215.769 20.7751 214.831L20.9898 214.929C19.5226 215.44 17.9343 215.492 16.4367 215.078C15.1086 214.731 13.8049 214.297 12.534 213.778L6.1792 211.393L2.04239 209.813L0.943141 209.378C0.815521 209.333 0.691561 209.279 0.572388 209.215C0.706322 209.24 0.837174 209.279 0.962653 209.332L2.07491 209.716L6.24425 211.211L12.6251 213.531C13.8974 214.034 15.201 214.453 16.5277 214.786C17.9675 215.173 19.4903 215.118 20.8987 214.63L21.0548 214.565L21.1069 214.727C21.4025 215.597 21.9881 216.338 22.7655 216.827C23.5769 217.349 24.4829 217.707 25.4323 217.88C27.3836 218.263 29.4846 218.062 31.5855 218.621C32.6022 218.945 33.601 219.322 34.5775 219.752C35.5314 220.097 36.5264 220.315 37.537 220.402C39.4601 220.617 41.3991 220.17 43.0333 219.134L43.1373 219.063L43.2284 219.147C44.748 220.422 46.6492 221.154 48.6316 221.228C50.614 221.302 52.5647 220.714 54.1754 219.557L54.2339 219.511L54.2989 219.544C56.3299 220.549 58.6247 220.895 60.8619 220.532C61.4662 220.435 62.0621 220.292 62.6441 220.103C62.8345 220.03 63.0302 219.971 63.2295 219.927Z" fill="#263238"/>
<g opacity="0.3">
<path d="M74.0594 192.263C74.0594 192.263 72.4723 189.163 73.2073 187.531C72.2828 186.809 71.615 185.809 71.3023 184.678C70.9896 183.548 71.0486 182.347 71.4706 181.252C70.9581 181.265 70.449 181.165 69.9794 180.96C69.5098 180.754 69.0911 180.448 68.7529 180.063C68.4147 179.678 68.1653 179.224 68.0224 178.732C67.8795 178.24 67.8464 177.722 67.9257 177.216L68.7518 174.512C68.7518 174.512 71.1194 179.809 73.8122 179.894C73.8122 179.894 70.5015 185.172 74.8789 186.992C74.8789 186.992 72.8496 191.444 76.4205 192.354L75.2757 199.55C74.2925 198.643 73.6393 197.434 73.4191 196.115C73.1989 194.796 73.4241 193.441 74.0594 192.263Z" fill="black"/>
</g>
<path d="M74.5797 192.465C74.5797 192.465 74.4496 192.413 74.248 192.25C73.963 192.008 73.7172 191.723 73.5195 191.405C73.2139 190.912 73.0125 190.361 72.9276 189.787C72.8139 189.041 72.9107 188.278 73.2073 187.583L73.2528 187.772C72.1846 186.951 71.4499 185.771 71.1844 184.45C70.9647 183.4 71.0598 182.308 71.4576 181.311L71.6072 181.525C70.7429 181.534 69.903 181.239 69.2331 180.693C68.716 180.264 68.3324 179.695 68.1273 179.055C67.9893 178.637 67.9363 178.195 67.9712 177.755C67.9714 177.601 68.0024 177.449 68.0623 177.307C68.051 177.871 68.1346 178.434 68.3095 178.971C68.5602 179.636 69.0117 180.206 69.6014 180.604C70.1911 181.001 70.8898 181.205 71.6007 181.187H71.8414L71.7568 181.415C71.3927 182.357 71.3091 183.384 71.5162 184.372C71.7743 185.617 72.4657 186.729 73.4675 187.512L73.5651 187.583L73.5195 187.694C73.2349 188.336 73.1293 189.044 73.2138 189.741C73.2786 190.287 73.4487 190.814 73.7147 191.295C73.9548 191.718 74.2453 192.111 74.5797 192.465Z" fill="#263238"/>
<path d="M89.9757 187.102C89.9432 187.102 89.9757 186.719 89.9757 186.004C89.9757 185.289 89.8651 184.249 89.722 182.929C89.4163 180.297 88.8244 176.572 87.9854 172.191L88.1154 172.315L87.465 172.23L87.6276 172.139L85.6112 176.8C85.2665 177.612 84.9153 178.438 84.551 179.276C84.1868 180.115 83.9006 180.986 83.5298 181.876C82.2409 185.029 81.1248 188.249 80.1865 191.522C79.4339 194.198 78.9652 196.945 78.7881 199.719C78.6909 201.588 78.778 203.463 79.0483 205.315C79.1393 205.965 79.2629 206.472 79.3215 206.817C79.3656 206.992 79.3918 207.17 79.3995 207.35C79.3377 207.181 79.2898 207.007 79.2564 206.83C79.1784 206.492 79.0353 205.991 78.9182 205.335C78.5937 203.477 78.4694 201.59 78.5474 199.706C78.692 196.912 79.1413 194.141 79.8873 191.444C80.8082 188.153 81.918 184.917 83.2111 181.753C83.5623 180.882 83.9071 180.017 84.2453 179.153C84.5835 178.288 84.9543 177.489 85.3055 176.676C86.0015 175.058 86.678 173.504 87.3154 172.022L87.3609 171.918H87.478L88.1285 172.003H88.239V172.113C89.0521 176.507 89.6049 180.245 89.8586 182.89C89.9677 183.918 90.0242 184.951 90.0277 185.984C90.0309 186.258 90.0157 186.532 89.9822 186.803C89.9916 186.903 89.9894 187.003 89.9757 187.102Z" fill="#263238"/>
<g opacity="0.3">
<path d="M85.9039 198.562C85.2535 200.395 82.8338 200.98 81.8322 202.65C80.6223 204.672 81.8907 207.486 80.7394 209.54C80.218 210.281 79.6183 210.963 78.9507 211.575C78.1507 212.53 77.6141 213.676 77.3939 214.902C77.1737 216.128 77.2776 217.389 77.6953 218.562C78.1416 219.724 78.8514 220.767 79.7689 221.608C80.6865 222.45 81.7868 223.067 82.9834 223.411L81.2533 221.65C83.094 216.918 84.9348 212.173 86.1186 207.233C86.808 204.347 87.2373 201.188 85.9039 198.562Z" fill="black"/>
</g>
<path d="M96.6948 175.337C95.848 176.323 95.135 177.416 94.5743 178.587C93.9239 179.855 93.2214 181.122 92.571 182.403C91.5238 184.463 90.5481 186.556 89.5724 188.649L86.6649 194.863C86.0192 196.056 85.5939 197.355 85.4096 198.698C85.3445 199.582 85.4681 200.538 85.0453 201.298C84.4599 202.345 83.094 202.598 82.372 203.56C81.5264 204.711 81.9622 206.362 81.8322 207.811C81.585 210.502 79.3149 212.53 78.723 215.156C78.0726 217.984 80.85 222.514 83.4778 223.411C91.0749 220.811 92.2913 213.973 93.2344 209.488L101.313 170.176C100.858 172.536 98.3144 173.628 96.6948 175.337Z" fill="#455A64"/>
<path d="M96.6948 175.337C96.7929 175.219 96.8971 175.107 97.007 174.999C97.2216 174.785 97.5534 174.479 98.0152 174.102C98.477 173.725 99.0689 173.277 99.6998 172.679C100.462 172.021 100.995 171.138 101.222 170.157L101.371 170.189C100.396 174.999 98.9193 182.299 97.1176 191.223C96.2069 195.689 95.2118 200.564 94.1515 205.731C93.8914 207.031 93.6182 208.331 93.3515 209.664C93.0848 210.996 92.7986 212.342 92.4019 213.681C91.6874 216.483 90.1867 219.022 88.0764 221C86.7393 222.15 85.1936 223.033 83.5233 223.6H83.4648H83.4127C82.5 223.23 81.6868 222.651 81.0386 221.91C80.396 221.202 79.8492 220.414 79.4125 219.563C78.9721 218.727 78.6711 217.825 78.5214 216.892C78.3854 215.961 78.5045 215.011 78.8661 214.142C79.5166 212.433 80.6679 211.029 81.2728 209.436C81.5803 208.66 81.7243 207.828 81.6956 206.992C81.6286 206.15 81.6657 205.303 81.8062 204.47C81.9055 204.047 82.1039 203.652 82.385 203.32C82.674 203.019 83.0048 202.76 83.3672 202.553C84.0635 202.24 84.6404 201.711 85.0128 201.045C85.2083 200.321 85.2917 199.571 85.26 198.822C85.318 198.071 85.4867 197.333 85.7608 196.631C86.2942 195.26 86.9446 194.031 87.504 192.79C88.0634 191.548 88.6228 190.404 89.1496 189.293L92.0376 183.319C92.8897 181.564 93.7223 180.108 94.3532 178.899C94.822 177.957 95.3635 177.053 95.9728 176.195C96.1844 175.9 96.424 175.626 96.6883 175.376C96.6365 175.452 96.58 175.523 96.5192 175.591C96.4021 175.734 96.2265 175.942 96.0248 176.241C95.442 177.112 94.9204 178.022 94.4638 178.964C93.8523 180.18 93.0328 181.642 92.2002 183.404L89.3578 189.397L87.7317 192.907C87.1788 194.129 86.5284 195.39 86.0145 196.729C85.7518 197.408 85.5917 198.122 85.5397 198.848C85.5756 199.628 85.4878 200.409 85.2795 201.162C84.8876 201.886 84.2713 202.463 83.5233 202.806C83.1861 203.001 82.8793 203.244 82.6127 203.528C82.3621 203.822 82.1859 204.172 82.0988 204.548C81.9695 205.359 81.939 206.181 82.0078 206.999C82.0344 207.874 81.8839 208.745 81.5655 209.56C80.915 211.204 79.8158 212.615 79.1719 214.266C78.8254 215.086 78.7129 215.986 78.8466 216.866C78.9937 217.761 79.2859 218.626 79.7117 219.427C80.1394 220.237 80.6755 220.985 81.3053 221.65C81.9168 222.349 82.6829 222.897 83.5428 223.249H83.4323C85.0589 222.697 86.5647 221.839 87.8683 220.72C89.9294 218.789 91.3942 216.308 92.0896 213.57C92.4864 212.27 92.7401 210.912 93.0393 209.586C93.3385 208.26 93.5792 206.947 93.8458 205.686C94.9191 200.486 95.9208 195.65 96.8444 191.184C98.7046 182.273 100.227 174.98 101.235 170.176H101.384C101.153 171.193 100.595 172.105 99.7974 172.776C99.1469 173.374 98.5485 173.81 98.0802 174.18C97.6119 174.551 97.2737 174.83 97.046 175.038C96.8184 175.246 96.6948 175.337 96.6948 175.337Z" fill="#263238"/>
<g opacity="0.3">
<path d="M88.3496 220.272C91.2069 218.92 93.6536 216.834 95.4394 214.227C97.2111 211.629 98.75 208.879 100.038 206.011L106.133 193.433L118.381 157.124L115.382 162.578C114.811 164.409 113.773 166.06 112.37 167.368C112.708 168.237 112.748 169.193 112.486 170.088C112.224 170.982 111.673 171.765 110.92 172.315C110.27 172.757 109.411 173.16 109.359 173.94C109.32 174.505 109.756 174.993 109.892 175.545C109.953 175.897 109.921 176.259 109.8 176.595C109.68 176.931 109.474 177.23 109.203 177.463C108.652 177.919 108.015 178.259 107.33 178.464C107.632 179.503 107.572 180.614 107.161 181.615C106.75 182.616 106.011 183.448 105.066 183.976C105.727 185.247 105.856 186.728 105.426 188.094C104.995 189.46 104.04 190.599 102.77 191.262C103 191.84 103.113 192.458 103.101 193.079C103.089 193.701 102.952 194.314 102.7 194.882C102.447 195.45 102.083 195.962 101.629 196.388C101.175 196.813 100.641 197.143 100.058 197.359C100.314 198.729 100.124 200.146 99.5134 201.399C98.9032 202.653 97.9059 203.677 96.6688 204.321C96.936 206.078 96.7461 207.874 96.1172 209.536C95.4884 211.198 94.4418 212.67 93.0783 213.811" fill="black"/>
</g>
<g opacity="0.3">
<path d="M64.706 205.4C63.438 205.166 62.2615 204.579 61.3114 203.708C60.3613 202.836 59.6758 201.715 59.3334 200.473C58.8697 200.808 58.3267 201.017 57.7579 201.078C57.1891 201.14 56.614 201.053 56.089 200.826C55.5641 200.598 55.1074 200.238 54.7639 199.781C54.4204 199.323 54.2019 198.785 54.1298 198.217C53.4601 198.398 52.7565 198.414 52.0793 198.263C51.4021 198.113 50.7715 197.801 50.2415 197.353C49.7115 196.906 49.2978 196.337 49.0359 195.695C48.774 195.053 48.6716 194.358 48.7377 193.667C47.5522 193.93 46.3113 193.731 45.2673 193.112C44.2233 192.492 43.4547 191.499 43.1178 190.333C41.9514 190.464 40.774 190.211 39.7653 189.611C38.7565 189.011 37.9717 188.098 37.5305 187.011C37.5305 187.011 39.0266 188.396 42.2072 188.721L44.7309 190.248C44.7309 190.248 44.5098 192.848 49.3361 192.848C49.3361 192.848 49.1149 198.107 54.5981 197.45C54.5981 197.45 54.9104 200.746 59.2033 199.641C59.2033 199.641 59.9383 202.559 63.8995 203.729L64.706 205.4Z" fill="black"/>
</g>
<g opacity="0.3">
<path d="M158.344 184.561C157.325 185.373 156.113 185.907 154.826 186.112C153.539 186.317 152.221 186.186 151 185.731C150.206 186.749 149.119 187.5 147.886 187.884C146.653 188.269 145.332 188.268 144.099 187.882C143.231 188.956 142.144 189.833 140.91 190.454C139.676 191.075 138.324 191.426 136.944 191.483C136.484 192.907 135.585 194.148 134.376 195.03C133.166 195.911 131.709 196.388 130.212 196.391C129.6 197.867 128.561 199.126 127.229 200.008C125.896 200.891 124.33 201.356 122.732 201.344C122.331 203.119 121.255 204.67 119.733 205.669C118.21 206.668 116.359 207.038 114.569 206.7C114.479 207.178 114.292 207.633 114.019 208.036C113.746 208.439 113.393 208.782 112.982 209.043C112.571 209.304 112.11 209.478 111.629 209.553C111.148 209.629 110.656 209.604 110.185 209.482C109.861 211.031 108.945 212.393 107.632 213.278C106.319 214.163 104.712 214.501 103.154 214.22C102.93 214.919 102.57 215.565 102.093 216.122C101.616 216.679 101.033 217.135 100.377 217.464C99.7219 217.793 99.0073 217.987 98.2755 218.036C97.5437 218.086 96.8095 217.988 96.1159 217.75C95.06 218.983 93.7248 219.947 92.2214 220.561C90.7179 221.175 89.0895 221.421 87.4715 221.279L86.06 222.209C91.914 222.566 94.9451 221.461 100.214 219.771C105.658 218.016 110.621 215.059 115.571 212.192L115.798 212.095C115.694 212.056 116.123 212.127 116.019 212.095C120.573 209.105 124.69 206.362 129.21 203.482C134.154 200.336 139.201 197.223 144.171 194.142C145.218 193.492 146.421 192.842 147.52 192.315C149.894 191.132 152.073 189.969 154.448 188.805C155.813 188.155 157.231 187.551 158.623 186.94C159.879 186.394 163.495 184.834 164.764 184.34C163.45 184.463 160.067 185.302 158.344 184.561Z" fill="black"/>
</g>
<g opacity="0.3">
<path d="M156.314 209.755L156.041 209.417L154.558 210.548C151.415 212.429 147.814 213.405 144.151 213.369C143.238 214.533 141.954 215.352 140.513 215.688C139.071 216.025 137.557 215.861 136.222 215.221C135.365 216.433 134.061 217.255 132.597 217.506C131.133 217.757 129.63 217.417 128.417 216.561C127.129 217.634 125.557 218.312 123.891 218.513C122.226 218.714 120.538 218.428 119.031 217.691C117.81 219.083 116.124 219.983 114.287 220.222C112.451 220.462 110.59 220.024 109.053 218.991C107.474 220.183 105.623 220.964 103.666 221.263C101.71 221.563 99.7101 221.372 97.8461 220.707L96.1744 221.104C96.7005 222.189 97.6363 223.022 98.7762 223.418C99.2868 223.529 99.816 223.521 100.323 223.396C100.831 223.271 101.303 223.032 101.703 222.696C101.556 222.821 101.464 222.999 101.447 223.191C101.43 223.384 101.489 223.575 101.612 223.723C101.877 224.015 102.236 224.201 102.627 224.25C103.85 224.488 105.118 224.244 106.165 223.568C106.156 223.752 106.197 223.937 106.286 224.099C106.374 224.262 106.506 224.398 106.666 224.49C106.991 224.666 107.726 225.049 108.025 224.835L109.086 224.958C110.125 224.997 111.166 224.966 112.201 224.868C121.808 223.685 131.363 221.838 140.457 218.296C145.149 216.492 149.666 214.264 153.953 211.64C154.781 211.064 155.57 210.434 156.314 209.755Z" fill="black"/>
</g>
<path d="M107.726 224.445C107.726 224.445 107.59 224.646 107.173 224.685C106.92 224.702 106.669 224.623 106.471 224.464C106.337 224.357 106.23 224.22 106.158 224.064C106.086 223.909 106.051 223.739 106.055 223.567L106.243 223.678C105.598 224.118 104.854 224.393 104.077 224.477C103.62 224.529 103.158 224.516 102.705 224.438C102.442 224.419 102.188 224.338 101.962 224.202C101.736 224.067 101.545 223.881 101.404 223.658C101.308 223.477 101.28 223.268 101.324 223.068C101.368 222.868 101.482 222.691 101.645 222.566L101.84 222.833C101.17 223.387 100.321 223.678 99.4526 223.652C98.7615 223.637 98.0916 223.41 97.5338 223.002C97.1664 222.737 96.8585 222.398 96.6297 222.007C96.5358 221.874 96.4735 221.72 96.4476 221.559C96.7761 222.047 97.1878 222.474 97.6639 222.82C98.1949 223.177 98.8194 223.369 99.4592 223.372C100.25 223.377 101.016 223.103 101.625 222.599L101.827 222.865C101.738 222.946 101.678 223.053 101.657 223.17C101.636 223.288 101.654 223.409 101.71 223.515C101.832 223.688 101.991 223.831 102.176 223.934C102.36 224.037 102.565 224.099 102.776 224.113C103.206 224.19 103.643 224.208 104.077 224.165C104.81 224.096 105.518 223.861 106.146 223.476L106.354 223.346V223.587C106.343 223.723 106.364 223.859 106.415 223.985C106.466 224.111 106.545 224.224 106.647 224.315C106.805 224.46 107.011 224.543 107.225 224.549C107.396 224.538 107.565 224.503 107.726 224.445Z" fill="#263238"/>
<path d="M109.996 272.239H47.788L40.6592 223.775H117.132L109.996 272.239Z" fill="#30CFC0"/>
<path d="M34.9548 234.825L34.9223 223.775H122.771L122.069 234.825H34.9548Z" fill="#30CFC0"/>
<path d="M122.069 234.825C122.069 234.994 102.555 235.124 78.4889 235.124C54.4225 235.124 34.8702 234.994 34.8702 234.825C34.8702 234.656 54.3835 234.533 78.4889 234.533C102.594 234.533 122.069 234.65 122.069 234.825Z" fill="#263238"/>
<path opacity="0.3" d="M45.0562 234.741C52.8615 238.388 66.5208 239.85 79.0418 239.375C91.5628 238.901 102.093 237.016 112.741 234.526L45.0562 234.741Z" fill="black"/>
</g>
<defs>
<clipPath id="clip0_190_486">
<rect width="294" height="273" fill="white"/>
</clipPath>
</defs>
</svg>
