<svg width="320" height="269" viewBox="0 0 320 269" fill="none" xmlns="http://www.w3.org/2000/svg">
<g clip-path="url(#clip0_190_1041)">
<path d="M319.833 268.111C319.833 268.219 248.268 268.299 160.007 268.299C71.7466 268.299 0.166504 268.219 0.166504 268.111C0.166504 268.002 71.7176 267.923 160.007 267.923C248.297 267.923 319.833 268.009 319.833 268.111Z" fill="#263238"/>
<path d="M46.0742 249.331C46.7982 246.67 45.0099 244.002 43.0552 242.1C41.1004 240.198 38.762 238.448 37.7411 235.896C36.0905 231.759 38.3059 226.408 35.4968 222.959C33.8389 220.934 30.8706 220.255 29.4009 218.085C28.7213 216.89 28.272 215.577 28.076 214.217C26.5138 207.346 23.1305 201.023 18.2805 195.907C17.9536 202.027 19.2815 208.121 22.1249 213.551C23.2615 215.721 24.666 217.832 25.0208 220.255C25.6362 224.181 23.4353 228.209 24.4054 232.085C25.5131 236.496 30.4724 239.453 30.704 243.995C30.9068 247.834 27.5547 251.226 27.8081 255.044C28.0111 256.679 28.6046 258.241 29.5384 259.599C32.5068 264.538 36.8796 267.937 43.4968 267.829L51.6054 268.111L46.0742 249.331Z" fill="#30CFC0"/>
<g opacity="0.3">
<path d="M46.0742 249.331C46.7982 246.67 45.0099 244.002 43.0552 242.1C41.1004 240.198 38.762 238.448 37.7411 235.896C36.0905 231.759 38.3059 226.408 35.4968 222.959C33.8389 220.934 30.8706 220.255 29.4009 218.085C28.7213 216.89 28.272 215.577 28.076 214.217C26.5138 207.346 23.1305 201.023 18.2805 195.907C17.9536 202.027 19.2815 208.121 22.1249 213.551C23.2615 215.721 24.666 217.832 25.0208 220.255C25.6362 224.181 23.4353 228.209 24.4054 232.085C25.5131 236.496 30.4724 239.453 30.704 243.995C30.9068 247.834 27.5547 251.226 27.8081 255.044C28.0111 256.679 28.6046 258.241 29.5384 259.599C32.5068 264.538 36.8796 267.937 43.4968 267.829L51.6054 268.111L46.0742 249.331Z" fill="black"/>
</g>
<path d="M53.2416 268.277C53.9842 268.391 54.7411 268.377 55.4787 268.234C56.3743 268.098 57.2545 267.875 58.1068 267.568C59.2838 267.159 60.3848 266.558 61.3647 265.789C61.9543 265.316 62.4149 264.702 62.7041 264.003C62.9462 263.221 63.0731 262.407 63.0805 261.588C63.0968 260.713 63.1621 259.839 63.276 258.97C63.4285 258.046 63.7632 257.161 64.2606 256.367C65.2163 254.69 66.809 253.099 67.3158 250.821C67.8226 248.543 67.4751 246.157 67.0986 243.727C66.7222 241.297 66.3746 238.665 67.2869 236.12C68.1991 233.574 69.9366 231.297 70.8271 228.448C71.7176 225.598 71.2977 222.46 71.486 219.401C71.5415 217.848 71.9006 216.32 72.543 214.904C73.1946 213.457 74.1068 212.12 74.8163 210.615C76.2642 207.564 76.5104 204.107 76.9013 200.716C77.0968 199.009 77.2851 197.281 77.4805 195.546C77.6038 193.791 77.907 192.054 78.3855 190.361C78.9348 188.654 79.5826 186.981 80.3258 185.35C80.7085 184.506 81.0232 183.633 81.267 182.739C81.4033 181.814 81.4903 180.882 81.5276 179.948C81.6139 178.077 81.5413 176.202 81.3104 174.344C81.0932 172.478 80.7529 170.627 80.5502 168.754C80.5502 168.638 80.5502 168.53 80.5502 168.429L80.5068 168.06L80.181 168.219C78.4692 169.096 76.9828 170.356 75.8371 171.9C74.7134 173.411 73.8091 175.074 73.1511 176.839C71.7973 180.317 71.3122 183.961 70.6317 187.439C69.9511 190.918 69.0823 194.338 67.3013 197.231C66.4108 198.677 65.3321 199.993 64.4054 201.396C63.3991 202.765 62.7115 204.341 62.3927 206.009C61.9077 209.437 63.7973 212.445 63.4063 215.482C63.2299 216.97 62.7362 218.402 61.9584 219.683C61.2344 220.978 60.3584 222.178 59.533 223.378C58.6965 224.556 57.9695 225.807 57.3611 227.117C56.7884 228.399 56.45 229.773 56.362 231.174C56.1665 233.907 56.5502 236.496 56.362 238.94C56.1359 241.27 55.4546 243.532 54.3565 245.6C53.3792 247.588 52.286 249.389 51.3737 251.139C50.9176 252.007 50.4905 252.86 50.143 253.721C49.8141 254.547 49.5715 255.404 49.419 256.28C49.1767 257.81 49.1572 259.366 49.3611 260.901C49.5738 263.042 50.3756 265.081 51.6778 266.795C51.8769 267.053 52.0973 267.295 52.3366 267.518C52.4965 267.685 52.6737 267.836 52.8651 267.966C53.1692 268.19 53.3285 268.291 53.3285 268.291C52.7497 267.834 52.2229 267.316 51.7574 266.744C50.5145 265.025 49.7636 263 49.5855 260.887C49.4011 259.371 49.4353 257.837 49.6869 256.331C49.8393 255.476 50.082 254.64 50.4108 253.836C50.7777 252.966 51.1909 252.117 51.6489 251.291C52.5683 249.555 53.6688 247.762 54.6679 245.759C55.7987 243.659 56.5024 241.356 56.7384 238.983C56.9556 236.489 56.5792 233.885 56.7819 231.224C56.8751 229.868 57.2059 228.539 57.7593 227.298C58.3714 226.015 59.0984 224.791 59.9312 223.639C60.7565 222.438 61.6326 221.238 62.3855 219.915C63.2119 218.585 63.7404 217.093 63.9348 215.54C64.3258 212.308 62.4507 209.285 62.9357 206.096C63.2531 204.501 63.918 202.995 64.8832 201.685C65.8027 200.304 66.8887 198.988 67.7792 197.505C69.6253 194.533 70.5158 191.048 71.1891 187.555C71.8624 184.063 72.362 180.447 73.6941 177.034C74.3348 175.319 75.2147 173.702 76.3077 172.232C77.4098 170.751 78.8393 169.543 80.4851 168.704L80.1158 168.494C80.1158 168.602 80.1158 168.711 80.152 168.826C80.3547 170.721 80.695 172.572 80.876 174.423C81.1046 176.253 81.1749 178.099 81.086 179.941C81.0493 180.846 80.9672 181.748 80.8398 182.645C80.6058 183.51 80.3007 184.354 79.9276 185.169C79.1805 186.818 78.5279 188.508 77.9728 190.231C77.4903 191.95 77.1846 193.714 77.0606 195.495C76.8724 197.238 76.6769 198.966 76.4887 200.673C76.0977 204.078 75.8443 207.477 74.4615 210.42C73.7375 211.866 72.8688 213.248 72.1955 214.723C71.5328 216.192 71.1639 217.776 71.1095 219.387C70.9285 222.511 71.3339 225.57 70.4869 228.332C69.6398 231.094 67.8805 233.394 66.99 236.004C66.0995 238.615 66.4253 241.377 66.8163 243.799C67.2072 246.222 67.5982 248.608 67.0769 250.756C66.5556 252.903 65.0642 254.509 64.0941 256.23C63.5826 257.058 63.2406 257.98 63.0878 258.941C62.9784 259.82 62.9204 260.703 62.914 261.588C62.9152 262.387 62.7981 263.181 62.5665 263.945C62.2983 264.608 61.8676 265.192 61.314 265.645C60.3603 266.413 59.2866 267.019 58.1357 267.438C57.2946 267.762 56.4242 268.004 55.5366 268.161C54.9942 268.26 54.4445 268.313 53.8932 268.32C53.4371 268.277 53.2416 268.277 53.2416 268.277Z" fill="#263238"/>
<path d="M78.8561 172.898C78.8174 172.975 78.7906 173.058 78.7764 173.143L78.6027 173.867C78.4434 174.51 78.2479 175.472 77.9439 176.672C77.6398 177.873 76.8941 179.232 76.2642 180.903C75.5265 182.783 74.8838 184.699 74.3384 186.644C73.7158 188.813 73.1728 191.2 72.5936 193.774C72.1014 196.516 71.2291 199.176 70.0018 201.678C69.3357 202.994 68.5538 204.324 67.9963 205.785C67.4118 207.277 67.0201 208.837 66.8307 210.427C66.4189 213.722 65.8341 216.992 65.0787 220.226C63.457 226.857 61.9077 233.177 60.4959 238.933C59.0841 244.689 57.752 249.837 56.6516 254.191C55.5511 258.544 54.7185 262.015 54.1104 264.495C53.828 265.681 53.6036 266.614 53.4443 267.301C53.3792 267.597 53.3212 267.836 53.2778 268.024C53.2698 268.108 53.2698 268.193 53.2778 268.277C53.3199 268.202 53.3515 268.122 53.3719 268.038C53.4226 267.843 53.495 267.612 53.5819 267.315C53.7629 266.643 54.0163 265.71 54.342 264.531C54.9936 262.073 55.9131 258.58 57.0497 254.277C58.1864 249.975 59.5113 244.768 60.9954 239.048C62.4796 233.329 63.9855 226.965 65.6217 220.327C66.3723 217.085 66.9427 213.804 67.3303 210.5C67.5153 208.947 67.8947 207.424 68.4597 205.966C69.0316 204.52 69.7629 203.225 70.4289 201.895C71.8769 199.255 72.4488 196.421 73.0208 193.868C73.5927 191.315 74.0995 188.9 74.6932 186.745C75.2868 184.59 75.9095 182.667 76.5321 181.004C77.1547 179.341 77.8425 177.967 78.1393 176.723C78.4362 175.479 78.5737 174.554 78.704 173.888C78.7523 173.589 78.7957 173.348 78.8344 173.165C78.8561 172.984 78.8706 172.898 78.8561 172.898Z" fill="#263238"/>
<path d="M54.6751 268.313C59.9674 265.167 61.4878 255.622 59.2796 249.881C57.0715 244.139 53.2054 238.889 52.6117 232.765C52.1484 228.057 53.6977 223.227 52.6117 218.628C51.1276 212.416 45.0606 207.607 45.133 201.222C45.1692 197.643 47.2108 194.273 47.0443 190.693C46.8489 186.311 43.4751 182.826 41.39 178.965C38.19 173.042 37.9801 166.05 36.8869 159.44C35.7936 152.831 33.2669 145.701 27.3737 142.44C26.505 148.073 25.0208 151.934 25.4841 159.563C25.6579 162.304 28.8434 167.518 29.2778 173.556C29.5384 177.171 29.7122 180.743 29.9366 184.33C30.1611 187.917 30.3783 191.388 31.6308 194.656C32.5936 197.165 34.1357 199.443 34.8525 202.032C36.1918 206.899 34.4253 212.156 35.5113 217.102C36.4308 221.281 39.3267 224.875 39.9203 229.113C40.7457 235.064 36.8941 241.254 38.8633 246.93C39.8479 249.751 42.1647 251.992 42.8235 254.921C43.3375 257.177 42.7801 259.571 43.2434 261.834C43.9674 265.493 50.9611 268.342 54.6896 268.103" fill="#30CFC0"/>
<path d="M28.8217 148.001C28.8118 148.106 28.8118 148.213 28.8217 148.319C28.8217 148.557 28.8941 148.861 28.9375 149.244C29.0606 150.061 29.1982 151.255 29.4733 152.802C29.7484 154.35 30.5737 156.1 31.2108 158.211C31.8479 160.323 32.5574 162.738 33.1511 165.442C33.7448 168.147 34.266 171.162 34.7945 174.394C35.323 177.627 35.9022 181.148 37.5095 184.518C38.2334 186.203 39.0877 187.895 39.6814 189.703C40.2897 191.553 40.6642 193.472 40.7963 195.415C41.0923 199.538 41.6119 203.642 42.3529 207.708C43.9746 216.053 45.5167 224 46.9212 231.239C48.3258 238.477 49.7375 244.935 50.8669 250.401C51.9963 255.868 52.923 260.236 53.5674 263.316L54.2914 266.823C54.3782 267.199 54.4434 267.496 54.5013 267.727C54.5209 267.833 54.55 267.937 54.5882 268.038C54.601 267.933 54.601 267.826 54.5882 267.72C54.5448 267.481 54.4941 267.185 54.4289 266.802C54.2696 265.963 54.0452 264.777 53.7629 263.273C53.1547 260.185 52.3149 255.774 51.2217 250.329C50.1285 244.884 48.8325 238.354 47.3918 231.145C45.9511 223.935 44.4959 215.959 42.8669 207.622C42.1255 203.555 41.6035 199.451 41.3031 195.329C41.1653 193.345 40.7786 191.387 40.152 189.5C39.5077 187.664 38.6606 185.964 37.9149 184.287C36.3221 180.968 35.7429 177.504 35.1927 174.286C34.6425 171.068 34.114 168.045 33.4841 165.327C32.8543 162.608 32.1665 160.178 31.457 158.095C30.7475 156.013 29.9583 154.248 29.6398 152.737C29.3212 151.226 29.1692 150.011 29.0172 149.208C28.9448 148.832 28.8868 148.528 28.8434 148.29C28.8419 148.193 28.8346 148.097 28.8217 148.001Z" fill="#263238"/>
<path d="M84.0326 78.3716H125.843C125.843 78.3716 125.843 43.3076 162.324 42.6857C181.271 42.3531 191.095 54.7546 195.091 64.2491C199.725 75.2767 198.32 87.8445 192.109 98.0766C185.021 109.755 169.745 121.491 141.567 116.531L141.3 209.574H182.646V154.415C182.646 154.415 240.63 139.446 240.63 75.5948C240.63 14.5275 191.189 1.33782 164.612 0.48454C149.828 0.014513 144.471 -0.621827 126.183 1.97417C102.878 5.30051 83.5403 32.3307 84.0326 78.3716Z" fill="#30CFC0"/>
<path d="M183.146 228.968H141.184V268.111H183.146V228.968Z" fill="#30CFC0"/>
<path opacity="0.1" d="M183.146 228.968H141.184V268.111H183.146V228.968Z" fill="black"/>
<path opacity="0.1" d="M84.0326 78.3716H125.843C125.843 78.3716 125.843 43.3076 162.324 42.6857C181.271 42.3531 191.095 54.7546 195.091 64.2491C199.725 75.2767 198.32 87.8445 192.109 98.0766C185.021 109.755 169.745 121.491 141.567 116.531L141.3 209.574H182.646V154.415C182.646 154.415 240.63 139.446 240.63 75.5948C240.63 14.5275 191.189 1.33782 164.612 0.48454C149.828 0.014513 144.471 -0.621827 126.183 1.97417C102.878 5.30051 83.5403 32.3307 84.0326 78.3716Z" fill="black"/>
<path d="M66.7077 78.3716H108.525C108.525 78.3716 108.525 43.3076 145.006 42.6857C163.953 42.3531 173.777 54.7546 177.767 64.2491C182.407 75.2767 181.003 87.8445 174.791 98.0766C167.703 109.755 152.159 120.37 123.982 115.431V209.574H165.329V154.415C165.329 154.415 223.312 139.446 223.312 75.5948C223.312 14.5275 168.478 0.347168 145.014 0.347168C127.066 0.368862 65.9186 4.70034 66.7077 78.3716Z" fill="#30CFC0"/>
<path opacity="0.3" d="M66.7077 78.3716H108.525C108.525 78.3716 108.525 43.3076 145.006 42.6857C163.953 42.3531 173.777 54.7546 177.767 64.2491C182.407 75.2767 181.003 87.8445 174.791 98.0766C167.703 109.755 152.159 120.37 123.982 115.431V209.574H165.329V154.415C165.329 154.415 223.312 139.446 223.312 75.5948C223.312 14.5275 168.478 0.347168 145.014 0.347168C127.066 0.368862 65.9186 4.70034 66.7077 78.3716Z" fill="black"/>
<path d="M165.828 228.968H123.866V268.111H165.828V228.968Z" fill="#30CFC0"/>
<path opacity="0.3" d="M165.828 228.968H123.866V268.111H165.828V228.968Z" fill="black"/>
<path d="M149.727 42.8738C149.52 42.8916 149.311 42.8916 149.104 42.8738C148.691 42.8738 148.098 42.7364 147.323 42.7291C145.133 42.6217 142.937 42.7136 140.764 43.0039C137.541 43.4115 134.369 44.1555 131.301 45.2239C129.493 45.8553 127.732 46.614 126.031 47.4945C124.192 48.4121 122.461 49.5301 120.869 50.8281C119.287 52.1377 117.87 53.6334 116.648 55.2825C115.489 56.8071 114.433 58.4063 113.484 60.0695C111.901 62.9023 110.645 65.9056 109.741 69.0217C109.128 71.1248 108.707 73.2787 108.481 75.4575C108.395 76.224 108.373 76.8314 108.351 77.2363C108.352 77.445 108.332 77.6532 108.293 77.8582C108.274 77.6514 108.274 77.4432 108.293 77.2363C108.293 76.8242 108.293 76.2168 108.358 75.443C108.525 73.2409 108.91 71.0608 109.509 68.9349C110.38 65.7828 111.62 62.7441 113.202 59.8815C114.152 58.2 115.214 56.5838 116.38 55.0438C117.613 53.3678 119.047 51.8498 120.652 50.5244C122.263 49.2085 124.016 48.0759 125.879 47.1474C127.59 46.2507 129.364 45.4774 131.186 44.8334C134.281 43.7691 137.483 43.0418 140.735 42.6641C142.923 42.3955 145.132 42.3447 147.33 42.5122C147.928 42.5503 148.522 42.6228 149.111 42.7291C149.32 42.7629 149.525 42.8112 149.727 42.8738Z" fill="#263238"/>
<path d="M212.728 35.4328C212.728 35.4328 212.677 35.3822 212.59 35.2737C212.503 35.1652 212.373 34.9772 212.228 34.7675L210.845 32.8151C210.548 32.3957 210.23 31.9112 209.853 31.4122L208.55 29.8286L207.059 27.9991C206.516 27.3628 205.879 26.7481 205.242 26.0756C204.605 25.4031 203.953 24.6872 203.214 24.0003C202.476 23.3133 201.687 22.6119 200.876 21.8888C200.471 21.5272 200.072 21.1657 199.638 20.7824L198.291 19.7194C197.372 18.9963 196.46 18.2732 195.468 17.5501C191.145 14.4607 186.559 11.7555 181.763 9.46561L177.948 7.74459L174.161 6.29835C172.923 5.78494 171.663 5.42338 170.447 5.01843C169.231 4.61349 168.043 4.20131 166.827 3.91929L163.366 3.01539C162.244 2.71891 161.129 2.53813 160.065 2.29227C159.001 2.04641 157.973 1.82948 156.966 1.70655L154.071 1.28714C152.239 0.9762 150.559 0.911118 149.097 0.766495C148.373 0.708645 147.649 0.629105 147.048 0.600181L145.325 0.55679L142.936 0.477252H142.313H142.103C142.173 0.466404 142.244 0.466404 142.313 0.477252H142.936H145.325H147.055C147.685 0.477252 148.373 0.564022 149.111 0.614641C150.559 0.737571 152.268 0.78819 154.1 1.08467L156.995 1.47515C158.002 1.59085 159.03 1.85118 160.101 2.04642C161.173 2.24166 162.273 2.44413 163.424 2.76954L166.9 3.6662C168.101 3.94099 169.289 4.38932 170.519 4.75811C171.75 5.1269 173.003 5.48123 174.241 6.03079L178.049 7.47703L181.886 9.20529C186.707 11.5004 191.311 14.2255 195.642 17.3476C196.641 18.0707 197.553 18.8445 198.472 19.5603L199.819 20.5366C200.253 20.8981 200.652 21.2597 201.057 21.6502L203.388 23.8195C204.112 24.5426 204.764 25.2657 205.408 25.9238C206.052 26.5818 206.668 27.2254 207.211 27.869L208.659 29.7129L209.947 31.3182C210.317 31.8244 210.628 32.3161 210.918 32.7645C211.482 33.6105 211.924 34.2758 212.235 34.7531L212.576 35.2809C212.633 35.3248 212.684 35.3758 212.728 35.4328Z" fill="#263238"/>
<path d="M208.369 125.099C208.283 125.256 208.179 125.402 208.058 125.533L207.059 126.712C206.646 127.24 206.125 127.869 205.481 128.57C204.836 129.272 204.148 130.096 203.309 130.95C202.469 131.803 201.571 132.757 200.55 133.719C199.529 134.681 198.422 135.693 197.242 136.749C192.066 141.261 186.392 145.17 180.329 148.398C178.925 149.121 177.6 149.845 176.319 150.401C175.037 150.958 173.843 151.529 172.742 151.992C171.642 152.455 170.628 152.838 169.745 153.178C168.862 153.518 168.087 153.793 167.45 153.995L166.002 154.465C165.834 154.532 165.659 154.581 165.481 154.61C165.637 154.521 165.802 154.448 165.973 154.393L167.421 153.858C168.051 153.634 168.811 153.344 169.687 152.983C170.563 152.621 171.576 152.26 172.662 151.746C173.748 151.233 174.95 150.748 176.203 150.119C177.455 149.49 178.795 148.825 180.192 148.095C182.95 146.576 185.926 144.797 188.93 142.744C191.935 140.69 194.635 138.528 197.039 136.489C198.219 135.447 199.348 134.471 200.355 133.488C201.361 132.504 202.302 131.615 203.135 130.761C203.967 129.908 204.699 129.12 205.35 128.426C206.002 127.732 206.538 127.124 206.972 126.618L207.986 125.468C208.103 125.335 208.232 125.212 208.369 125.099Z" fill="#263238"/>
<path d="M164.597 206.291C164.489 206.291 164.402 194.678 164.402 180.353C164.402 166.028 164.489 154.407 164.597 154.407C164.706 154.407 164.786 166.021 164.786 180.353C164.786 194.685 164.699 206.291 164.597 206.291Z" fill="#263238"/>
<path d="M166.19 265.457C166.081 265.457 166.002 257.307 166.002 247.256C166.002 237.204 166.081 229.048 166.19 229.048C166.299 229.048 166.378 237.197 166.378 247.256C166.378 257.314 166.291 265.457 166.19 265.457Z" fill="#263238"/>
</g>
<defs>
<clipPath id="clip0_190_1041">
<rect width="320" height="269" fill="white"/>
</clipPath>
</defs>
</svg>
